<?xml version="1.0" encoding="UTF-8"?>
<!DOCTYPE svg PUBLIC "-//W3C//DTD SVG 1.1//EN" "http://www.w3.org/Graphics/SVG/1.1/DTD/svg11.dtd">
<!-- Creator: CorelDRAW 2017 -->
<svg xmlns="http://www.w3.org/2000/svg" xml:space="preserve" width="67px" height="108px" version="1.1" style="shape-rendering:geometricPrecision; text-rendering:geometricPrecision; image-rendering:optimizeQuality; fill-rule:evenodd; clip-rule:evenodd"
viewBox="0 0 5.19 8.36"
 xmlns:xlink="http://www.w3.org/1999/xlink">
 <defs>
  <style type="text/css">
   <![CDATA[
    .fil1 {fill:black}
    .fil0 {fill:#F56400}
   ]]>
  </style>
 </defs>
 <g id="Пометки">
  <metadata id="CorelCorpID_0Corel-Layer"/>
  <g id="_1670230384208">
   <path class="fil0" d="M3.46 5.15c0.16,0.09 0.35,0.09 0.52,0.03 0.1,-0.04 0.14,-0.08 0.2,-0.11 -0.01,0.25 -0.22,0.46 -0.48,0.44 -0.23,-0.01 -0.44,-0.25 -0.41,-0.51 0.07,0.07 0.07,0.1 0.17,0.15zm0.15 0.53l0.17 0.01c0.25,-0.04 0.41,-0.17 0.5,-0.34 0.14,-0.28 0.04,-0.62 -0.05,-0.67 -0.1,0.04 0.01,0.12 -0.18,0.27 -0.34,0.28 -0.89,-0.08 -0.58,-0.36 0.07,-0.07 0.21,-0.13 0.34,-0.09 0.16,0.04 0.1,0.17 -0.05,0.19 -0.42,0.04 -0.09,0.34 0.19,0.18 0.24,-0.13 0.19,-0.42 -0.07,-0.5 -0.26,-0.07 -0.51,0.09 -0.62,0.22 -0.26,0.31 -0.18,0.95 0.35,1.09z"/>
   <path class="fil0" d="M3.92 2.25c0,0.14 -0.26,0.18 -0.28,0.17 -0.09,-0.01 -0.1,-0.25 -0.07,-0.33 0.14,0 0.06,0.07 0.14,0.11 0.08,0.05 0.13,-0.04 0.21,0.05zm-0.4 -0.3c-0.05,0.02 -0.06,0.02 -0.09,0.07 -0.02,0.04 -0.04,0.08 -0.04,0.13 -0.01,0.09 0.02,0.2 0.05,0.28 0.08,0.2 0.26,0.18 0.45,0.09 0.15,-0.08 0.28,-0.25 0.11,-0.4 -0.02,-0.03 -0.06,-0.05 -0.1,-0.06 -0.11,-0.03 -0.06,0.02 -0.13,-0.04 -0.05,-0.05 -0.13,-0.13 -0.25,-0.07z"/>
   <path class="fil1" d="M3.41 7.63c-0.11,0.01 -0.28,-0.04 -0.3,-0.14 0.06,-0.07 0.07,-0.02 0.17,-0.04 0.06,-0.07 0.02,-0.15 0.16,-0.15 0.07,0.07 0.03,0.27 -0.03,0.33zm-3.14 -0.66c0.06,-0.09 0.22,-0.26 0.39,-0.23 0.07,0.02 0.08,0.04 0.13,0.09 0.11,0.12 0.31,0.17 0.48,0.08 0.07,-0.04 0.26,-0.29 0.44,-0.12 0.07,0.07 0.14,0.14 0.28,0.16 0.13,0.02 0.26,-0.03 0.32,-0.11 0.24,-0.27 0.41,0.04 0.56,0.09 0.12,0.04 0.26,0.02 0.35,-0.04 0.08,-0.06 0.12,-0.16 0.27,-0.15 0.2,0.01 0.28,0.33 0.62,0.22 0.19,-0.06 0.37,-0.37 0.58,-0.19 0.04,0.03 0.19,0.18 0.21,0.22 -0.13,0.07 -0.29,0.13 -0.44,0.19 -0.17,0.07 -0.29,0.13 -0.33,0.3l-0.5 0c0.03,-0.36 -0.22,-0.41 -0.37,-0.29 -0.05,0.05 -0.06,0.07 -0.08,0.09 -0.04,0.03 -0.13,0.02 -0.2,0.11 -0.09,0.13 0.01,0.29 0.2,0.36 0.39,0.15 0.35,-0.09 0.43,-0.11l0.46 0c0.08,0.02 0,0.13 0.15,0.27 0.06,0.06 0.23,0.12 0.14,0.24 -0.05,0.07 -0.25,0.04 -0.36,0.04l-2.96 0c-0.06,0.01 -0.12,0.01 -0.16,-0.03 -0.12,-0.13 0.14,-0.17 0.22,-0.37 0.08,-0.23 -0.03,-0.46 -0.25,-0.55 -0.1,-0.04 -0.2,-0.08 -0.3,-0.12 -0.1,-0.04 -0.22,-0.08 -0.28,-0.15zm-0.1 -0.14c-0.06,-0.59 0.47,-0.46 0.99,-0.46 0.37,0 3.51,-0.02 3.63,0.01 0.18,0.05 0.29,0.24 0.22,0.47 -0.07,-0.03 -0.15,-0.16 -0.23,-0.22 -0.28,-0.18 -0.46,-0.01 -0.63,0.12 -0.27,0.22 -0.34,-0.13 -0.6,-0.17 -0.15,-0.02 -0.26,0.04 -0.34,0.11 -0.3,0.27 -0.35,-0.03 -0.58,-0.1 -0.36,-0.1 -0.4,0.27 -0.66,0.2 -0.09,-0.03 -0.31,-0.36 -0.63,-0.14 -0.08,0.05 -0.14,0.16 -0.29,0.14 -0.13,-0.02 -0.12,-0.09 -0.27,-0.17 -0.31,-0.16 -0.51,0.14 -0.61,0.21zm4.24 -0.62c0.02,-0.04 0.14,-0.17 0.2,-0.19l-0.01 0.19 -0.19 0zm-2.76 0c0.02,-0.02 0.03,-0.02 0.06,-0.05l0.05 -0.04c0.04,0.03 0.08,0.06 0.12,0.09l-0.23 0zm-0.28 -0.01c0.02,-0.06 0.09,-0.23 0.12,-0.27l0.09 0.01 0.03 0.1c-0.07,0.04 -0.17,0.13 -0.24,0.16zm-0.68 -0.16c0.02,-0.08 0.03,-0.11 0.13,-0.11l0.11 0.27c-0.07,-0.04 -0.16,-0.12 -0.24,-0.16zm1.13 -0.08c0,-0.12 0.05,-0.16 0.17,-0.16l0.16 0.39 -0.33 -0.23zm0.88 -0.16c0.14,0.01 0.16,0.03 0.18,0.16 -0.05,0.02 -0.12,0.08 -0.16,0.12 -0.06,0.04 -0.12,0.08 -0.18,0.11l0.16 -0.39zm1.91 -0.04c-0.02,0.06 -0.23,0.24 -0.28,0.29 -0.04,0.04 -0.08,0.11 -0.16,0.12 -0.21,0.02 -0.41,-0.27 -0.05,-0.39 0.09,-0.03 0.39,-0.07 0.49,-0.02zm-3.35 0.02c0,0.06 -0.09,0.31 -0.1,0.34 0,0 -0.01,0.01 -0.01,0.01 0,0 0,0 -0.01,0.01l-0.11 -0.35c0.07,-0.07 0.16,-0.06 0.23,-0.01zm0.93 -0.14c0.17,-0.09 0.14,-0.08 0.31,0l-0.16 0.49 -0.15 -0.49zm-0.28 -0.45c0.1,0.2 -0.15,0.08 -0.21,-0.01l0.21 0.01zm0.58 -0.94c0.18,-0.01 0.2,0.06 0.23,0.2 -0.03,0.04 -0.39,0.31 -0.45,0.34l0.22 -0.54zm-0.99 0.22c0.02,-0.16 0.05,-0.21 0.22,-0.22l0.22 0.55c-0.11,-0.06 -0.35,-0.28 -0.44,-0.33zm0.41 -0.39c0.19,-0.14 0.2,-0.09 0.39,-0.01l-0.2 0.65 -0.19 -0.64zm0.43 -3.02c-0.08,-0.07 -0.04,-0.26 0,-0.34 0.13,0 0.27,0.03 0.32,0.12 -0.04,0.11 -0.11,0.06 -0.2,0.08 -0.07,0.07 -0.03,0.12 -0.12,0.14zm1.44 4.63l-0.17 -0.01 0 0.53 -0.8 0c0.11,-0.11 0.27,-0.11 0.21,-0.34 -0.05,-0.18 -0.14,-0.23 -0.35,-0.23 -0.03,-0.06 -0.01,-0.08 -0.07,-0.12 -0.16,-0.12 -0.25,-0.11 -0.41,-0.07l0 -0.5c0.13,0.05 0.18,-0.02 0.32,-0.13 0.29,-0.22 0.46,-0.26 0.3,-0.57 -0.06,-0.12 -0.15,-0.16 -0.33,-0.17 -0.06,-0.01 0.04,-0.05 -0.14,-0.16 -0.32,-0.2 -0.58,0.02 -0.59,0.16 -0.18,0 -0.28,0.04 -0.35,0.16 -0.16,0.32 0.01,0.36 0.31,0.59 0.16,0.12 0.19,0.17 0.32,0.12l0 0.13c-0.11,-0.06 -0.1,-0.06 -0.26,-0.06 -0.1,0 -0.2,0 -0.3,0 0,0.2 0.08,0.26 0.19,0.34 0.12,0.09 0.21,0.14 0.37,0.05l-0.01 0.23c-0.29,0 -0.27,0.07 -0.34,0.18 -0.08,-0.03 -0.12,-0.06 -0.25,-0.05 -0.05,-0.24 -0.5,-0.26 -0.56,0 -0.16,-0.02 -0.26,0.04 -0.31,0.15 -0.07,0.18 0,0.2 0.09,0.29l-0.17 0c-0.01,-0.6 0,-1.21 0,-1.81 0,-0.45 -0.02,-1.41 0,-1.8 0.02,-0.38 0.15,-0.72 0.34,-1.02 0.29,-0.43 0.81,-0.82 1.36,-0.88 -0.03,0.12 -0.08,0.26 -0.02,0.39 0.05,0.11 0.18,0.18 0.31,0.09 0.09,-0.06 0.02,-0.08 0.14,-0.11 0.06,-0.01 0.1,-0.04 0.14,-0.08 0.05,-0.04 0.07,-0.09 0.06,-0.17 0,-0.07 -0.05,-0.11 -0.08,-0.15 0.24,0.01 0.52,0.11 0.71,0.2 0.16,0.07 0.29,0.16 0.42,0.26 0.35,0.29 0.64,0.73 0.73,1.31l-0.08 0.04c-0.01,0.1 0.03,0.09 0.07,0.14 -0.01,0.09 -0.11,0.08 -0.08,0.17 0.03,0.05 0.04,0.02 0.09,0.03 0.04,0.02 -0.01,-0.02 0.02,0.02l0 2.75c-0.36,-0.03 -0.69,0.01 -0.83,0.28l0 -0.18zm-1.59 -5.19c-0.09,0 -0.22,-0.04 -0.28,-0.08 -0.15,-0.12 0.12,-0.08 0.16,-0.13 0.03,-0.04 0.01,-0.07 0.06,-0.11 0.11,-0.09 0.16,0.06 0.06,0.32zm-0.3 0.09c-0.04,0.04 -0.31,0.11 -0.59,0.29 -0.18,0.13 -0.36,0.28 -0.48,0.44 -0.26,0.33 -0.47,0.73 -0.5,1.29 -0.01,0.29 0,0.61 0,0.9l0 2.72c-0.01,0.05 -0.24,0.07 -0.3,0.38 -0.14,0.64 0.71,0.66 0.88,0.85 0.05,0.06 0.09,0.18 0.05,0.28 -0.07,0.15 -0.33,0.18 -0.24,0.44 0.07,0.21 0.31,0.17 0.54,0.17l2.82 0c0.1,0 0.24,0.02 0.32,-0.02 0.07,-0.04 0.14,-0.11 0.15,-0.21 0.03,-0.27 -0.22,-0.24 -0.27,-0.43 -0.11,-0.41 0.54,-0.37 0.78,-0.63 0.23,-0.24 0.15,-0.6 -0.04,-0.74 -0.11,-0.08 -0.12,-0.06 -0.24,-0.11 0,-0.48 -0.02,-0.31 0.1,-0.48 -0.11,-0.13 -0.11,-0.03 -0.1,-0.26l0 -2.63 0.09 -0.02c0.02,-0.1 -0.05,-0.1 -0.07,-0.18 0.03,-0.04 0.08,-0.07 0.08,-0.12 0,-0.08 -0.08,-0.06 -0.12,-0.03 -0.05,-0.36 -0.11,-0.55 -0.26,-0.83 -0.24,-0.46 -0.69,-0.84 -1.17,-1.02 -0.34,-0.12 -0.57,-0.14 -0.96,-0.13 0.03,-0.13 0.08,-0.3 0,-0.42 -0.08,-0.11 -0.22,-0.12 -0.34,-0.03 -0.08,0.06 -0.01,0.08 -0.13,0.11 -0.08,0.02 -0.12,0.05 -0.15,0.1 -0.08,0.16 0.06,0.28 0.15,0.32z"/>
   <path class="fil1" d="M2.62 5.25c0.05,-0.02 0.09,0.01 0.13,-0.04 0.03,-0.05 0,-0.06 0.07,-0.07 0.02,0.07 0,0.13 -0.03,0.19 -0.06,0 -0.13,-0.03 -0.17,-0.08zm0.16 -0.27c-0.11,0.03 -0.11,0.08 -0.16,0.1 -0.09,0.04 -0.12,0.02 -0.15,0.12 -0.05,0.15 0.11,0.24 0.23,0.27 0.18,0.05 0.25,-0.04 0.28,-0.2 0.03,-0.16 -0.03,-0.32 -0.2,-0.29z"/>
  </g>
 </g>
</svg>
