<?xml version="1.0" encoding="UTF-8"?>
<!DOCTYPE svg PUBLIC "-//W3C//DTD SVG 1.1//EN" "http://www.w3.org/Graphics/SVG/1.1/DTD/svg11.dtd">
<!-- Creator: CorelDRAW 2017 -->
<svg xmlns="http://www.w3.org/2000/svg" xml:space="preserve" width="149px" height="149px" version="1.1" style="shape-rendering:geometricPrecision; text-rendering:geometricPrecision; image-rendering:optimizeQuality; fill-rule:evenodd; clip-rule:evenodd"
viewBox="0 0 2.51 2.51"
 xmlns:xlink="http://www.w3.org/1999/xlink">
 <defs>
  <style type="text/css">
   <![CDATA[
    .str0 {stroke:#F56400;stroke-width:0.02;stroke-miterlimit:22.9256}
    .fil0 {fill:#F56400}
    .fil1 {fill:white;fill-rule:nonzero}
   ]]>
  </style>
     <clipPath id="id0">
      <path d="M0 0l2.51 0 0 2.51 -2.51 0 0 -2.51z"/>
     </clipPath>
 </defs>
 <g id="Слой_x0020_1">
  <metadata id="CorelCorpID_0Corel-Layer"/>
  <g id="_2264875640704">
   <g>
    <g style="clip-path:url(#id0)">
     <image x="0" y="0" width="2.51" height="2.51" xlink:href="basket_Images\basket_ImgID1.png"/>
    </g>
   </g>
   <circle class="fil0 str0" cx="1.25" cy="1.19" r="0.96"/>
   <path class="fil1" d="M0.81 0.74l0.16 0.04 0.03 0.17 0.76 0.07 -0.08 0.34 -0.58 -0.01 0.01 0.08c0.19,0 0.33,0 0.51,0 0.07,0 0.07,0.08 0,0.08l-0.57 0 -0.15 -0.66c-0.05,-0.02 -0.08,-0.02 -0.11,-0.03 -0.06,-0.02 -0.04,-0.1 0.02,-0.08zm0.74 0.82c0.05,0 0.1,0.05 0.1,0.11 0,0.06 -0.05,0.1 -0.1,0.1 -0.06,0 -0.11,-0.04 -0.11,-0.1 0,-0.06 0.05,-0.11 0.11,-0.11zm-0.4 0c0.06,0 0.11,0.05 0.11,0.11 0,0.06 -0.05,0.1 -0.11,0.1 -0.05,0 -0.1,-0.04 -0.1,-0.1 0,-0.06 0.05,-0.11 0.1,-0.11z"/>
  </g>
 </g>
</svg>
