<?xml version="1.0" encoding="UTF-8"?>
<!DOCTYPE svg PUBLIC "-//W3C//DTD SVG 1.1//EN" "http://www.w3.org/Graphics/SVG/1.1/DTD/svg11.dtd">
<!-- Creator: CorelDRAW 2017 -->
<svg xmlns="http://www.w3.org/2000/svg" xml:space="preserve" width="60px" height="105px" version="1.1" style="shape-rendering:geometricPrecision; text-rendering:geometricPrecision; image-rendering:optimizeQuality; fill-rule:evenodd; clip-rule:evenodd"
viewBox="0 0 3.05 5.36"
 xmlns:xlink="http://www.w3.org/1999/xlink">
 <defs>
  <style type="text/css">
   <![CDATA[
    .fil1 {fill:black}
    .fil0 {fill:#F56400}
   ]]>
  </style>
 </defs>
 <g id="Пометки">
  <metadata id="CorelCorpID_0Corel-Layer"/>
  <g id="_1670230383536">
   <path class="fil0" d="M1.99 0.43l0.02 0.01c0,0 0.01,0.01 0.01,0.01 0.01,0.01 0.02,0.02 0.03,0.03 0.05,0.05 0.14,0.08 0.22,0.09 0.15,0.01 0.22,-0.05 0.31,-0.1 0,0.15 -0.14,0.3 -0.3,0.29 -0.16,-0.01 -0.29,-0.16 -0.29,-0.33zm0.24 0.44l0.1 0c0.31,-0.05 0.45,-0.36 0.32,-0.62 -0.02,-0.04 -0.01,-0.03 -0.04,-0.04 -0.06,0.04 0,0.14 -0.17,0.21 -0.11,0.05 -0.24,0.04 -0.32,-0.02 -0.08,-0.07 -0.07,-0.21 0.01,-0.27 0.19,-0.14 0.41,0.06 0.16,0.09 -0.24,0.02 -0.05,0.24 0.16,0.11 0.19,-0.12 0.04,-0.4 -0.26,-0.31 -0.43,0.12 -0.4,0.76 0.04,0.85z"/>
   <path class="fil0" d="M1.16 3.24c0.05,-0.03 0.09,0 0.12,-0.04 0.02,-0.03 0.01,-0.08 0.07,-0.07 0.05,0.01 0.04,0.04 0.04,0.09 -0.01,0.05 -0.01,0.09 -0.04,0.11 -0.01,0.01 -0.19,0 -0.19,-0.09zm0.16 -0.21c-0.11,0.03 -0.08,0.06 -0.12,0.09 -0.06,0.03 -0.1,0 -0.13,0.09 -0.06,0.12 0.09,0.19 0.18,0.22 0.16,0.04 0.21,-0.03 0.24,-0.17 0.02,-0.13 -0.03,-0.27 -0.17,-0.23z"/>
   <path class="fil1" d="M1.18 5.26c-0.27,0 -0.37,-0.25 -0.29,-0.42 0.03,-0.08 0.09,-0.18 0.13,-0.25l0.11 -0.19c0.01,-0.02 0.01,-0.05 0.04,-0.05 0.06,0 0.05,0.02 0.08,0.08 0.04,0.06 0.1,0.19 0.14,0.24l0.06 -0.01c0.03,-0.06 -0.01,-0.1 -0.04,-0.16 -0.03,-0.03 -0.07,-0.11 -0.09,-0.15l0.29 0c0.04,0.07 0.14,0.27 0.18,0.32l0.06 -0.01c0.04,-0.08 -0.09,-0.19 -0.12,-0.31 0.2,0 0.17,-0.02 0.2,0.06l0.1 0.18c0.05,0.08 0.11,0.17 0.14,0.25 0.08,0.16 -0.02,0.42 -0.29,0.42l-0.7 0zm-0.24 -1.21c0.04,-0.01 0.96,-0.01 1.12,0 0.15,0 0.15,0.16 0.06,0.19 -0.04,0.01 -0.95,0.01 -1.12,0.01 -0.15,0 -0.16,-0.16 -0.06,-0.2zm-0.24 -1.87c0.07,-0.02 0.08,-0.03 0.12,-0.07 0.18,-0.15 0.22,0.14 0.46,0.07 0.1,-0.03 0.15,-0.16 0.28,-0.1 0.05,0.03 0.06,0.07 0.12,0.09 0.16,0.07 0.26,-0.05 0.3,-0.08 0.13,-0.08 0.21,0.06 0.28,0.09 0.22,0.1 0.29,-0.14 0.45,-0.12 0.08,0.01 0.19,0.15 0.21,0.19 -0.02,0.07 -0.08,0.15 -0.12,0.22 -0.1,0.17 -0.82,1.41 -0.85,1.48l-0.85 -0.01c-0.08,-0.14 -0.16,-0.29 -0.25,-0.43 -0.06,-0.1 -0.69,-1.19 -0.72,-1.26 0.01,-0.03 0.04,-0.05 0.06,-0.08 0.04,-0.03 0.14,-0.17 0.26,-0.07 0.15,0.12 0.1,0.04 0.15,0.12l0.29 0.52c0.03,0.06 0.06,0.12 0.09,0.17 0.03,0.06 0.06,0.14 0.13,0.08 0.01,-0.06 -0.01,-0.07 -0.03,-0.12 -0.06,-0.11 -0.37,-0.64 -0.38,-0.69zm-0.59 -0.06c-0.01,-0.02 -0.01,-0.04 0.01,-0.09 0.02,-0.07 0.07,-0.13 0.15,-0.17 0.1,-0.05 0.28,-0.03 0.4,-0.03 0.57,0 1.14,0 1.71,0 0.12,0 0.31,-0.02 0.4,0.03 0.08,0.04 0.17,0.13 0.17,0.25 -0.02,-0.02 -0.04,-0.03 -0.06,-0.06 -0.07,-0.07 -0.15,-0.13 -0.28,-0.08 -0.12,0.03 -0.22,0.23 -0.35,0.09 -0.1,-0.1 -0.24,-0.14 -0.37,-0.02 -0.16,0.14 -0.2,-0.04 -0.34,-0.07 -0.22,-0.05 -0.23,0.17 -0.39,0.11 -0.05,-0.01 -0.18,-0.19 -0.37,-0.07 -0.05,0.03 -0.08,0.09 -0.17,0.08 -0.04,-0.01 -0.06,-0.02 -0.08,-0.05 -0.02,-0.02 -0.05,-0.04 -0.08,-0.05 -0.17,-0.08 -0.3,0.05 -0.35,0.13zm1.7 -0.74c0.08,0 0.1,0.03 0.11,0.11l-0.23 0.17 0.12 -0.28zm-0.57 0.11c0.01,-0.09 0.02,-0.11 0.11,-0.11l0.11 0.29c-0.04,-0.03 -0.08,-0.06 -0.11,-0.09 -0.04,-0.03 -0.08,-0.06 -0.11,-0.09zm-0.77 -0.09c0.08,-0.01 0.3,0.03 0.21,0.12 -0.05,0.05 -0.09,0 -0.12,-0.03 -0.03,-0.03 -0.06,-0.06 -0.09,-0.09zm1.01 -0.13c0.09,-0.08 0.11,-0.05 0.2,0l-0.11 0.34 -0.09 -0.34zm1.28 -0.12c-0.03,0.04 -0.11,0.11 -0.15,0.16 -0.05,0.05 -0.11,0.1 -0.2,0.02 -0.11,-0.11 0.11,-0.21 0.35,-0.18zm-1.82 0c0.01,-0.07 0.08,-0.24 0.1,-0.32 0.04,-0.11 0.09,-0.19 0.13,-0.29 0.08,-0.01 0.18,0 0.23,0.05 0.03,0.04 0.07,0.14 0.07,0.21 -0.06,0.02 -0.48,0.33 -0.53,0.35zm-0.76 -0.36c0.03,-0.2 0.09,-0.26 0.31,-0.25 0.01,0.05 0.04,0.1 0.06,0.15 0.04,0.09 0.15,0.39 0.16,0.46l-0.27 -0.18c-0.07,-0.05 -0.21,-0.13 -0.26,-0.18zm0.4 -0.37c0.04,-0.04 0.16,-0.11 0.25,-0.11 0.08,0.01 0.2,0.07 0.24,0.11 -0.01,0.06 -0.08,0.26 -0.11,0.33l-0.13 0.29c-0.05,-0.07 -0.1,-0.21 -0.14,-0.3 -0.03,-0.06 -0.1,-0.25 -0.11,-0.32zm1.75 0.45l-0.1 0 0 0.86 -0.42 -0.02c0.08,-0.08 0.21,-0.12 0.2,-0.22 0,-0.15 -0.09,-0.22 -0.23,-0.22 -0.01,-0.1 -0.14,-0.15 -0.21,-0.15 -0.16,0.01 -0.2,0.15 -0.21,0.15 -0.08,0 -0.13,0.02 -0.17,0.06 -0.02,0.04 -0.05,0.12 -0.05,0.17 0,0.1 0.15,0.14 0.22,0.23l-0.48 0 0 -0.41c0.01,-0.02 0.01,-0.01 0.04,-0.03l0.55 -0.37c0.05,-0.04 0.11,-0.06 0.1,-0.14 -0.02,-0.24 -0.14,-0.34 -0.39,-0.34 -0.03,-0.1 -0.01,-0.09 -0.14,-0.16 -0.18,-0.11 -0.36,-0.08 -0.52,0.06 -0.04,0.03 -0.04,0.05 -0.05,0.1 -0.17,0 -0.28,0.03 -0.34,0.15 -0.01,0.04 -0.05,0.15 -0.05,0.2 0,0.08 0.06,0.1 0.11,0.13l0.55 0.37c0.04,0.03 0.04,0.01 0.03,0.1 -0.06,-0.04 -0.07,-0.08 -0.23,-0.09 -0.15,-0.01 -0.17,0.02 -0.24,0.08 0.03,0.04 0.16,0.16 0.2,0.2 0.1,0.1 0.18,0.07 0.27,-0.01l0 0.16c-0.12,0 -0.38,-0.02 -0.48,0.01 -0.12,0.04 -0.22,0.13 -0.26,0.24 -0.06,0.16 -0.02,0.27 0.05,0.39 0.06,0.11 0.12,0.21 0.18,0.32l0.72 1.25c-0.12,0.01 -0.22,0.09 -0.2,0.23 0.01,0.15 0.13,0.18 0.26,0.18 -0.06,0.19 -0.36,0.44 -0.26,0.73 0.12,0.34 0.46,0.28 0.75,0.28 0.29,0 0.64,0.06 0.75,-0.29 0.07,-0.21 -0.06,-0.37 -0.18,-0.56 -0.02,-0.04 -0.07,-0.12 -0.08,-0.16 0.07,-0.01 0.13,0 0.18,-0.04 0.14,-0.11 0.1,-0.35 -0.13,-0.37l0.18 -0.31c0.06,-0.1 0.11,-0.2 0.17,-0.31l0.54 -0.93c0.07,-0.12 0.12,-0.22 0.07,-0.39 -0.04,-0.11 -0.13,-0.2 -0.24,-0.25 -0.14,-0.05 -0.31,-0.01 -0.46,-0.03l0 -0.32c0.06,0.04 0.16,0.12 0.28,0.04l0.31 -0.31c-0.05,-0.04 -0.05,-0.06 -0.13,-0.08 -0.16,-0.04 -0.33,0.01 -0.46,0.1l0 -0.28z"/>
  </g>
 </g>
</svg>
