<?xml version="1.0" encoding="UTF-8"?>
<!DOCTYPE svg PUBLIC "-//W3C//DTD SVG 1.1//EN" "http://www.w3.org/Graphics/SVG/1.1/DTD/svg11.dtd">
<!-- Creator: CorelDRAW 2018 -->
<svg xmlns="http://www.w3.org/2000/svg" xml:space="preserve" width="63px" height="109px" version="1.1" style="shape-rendering:geometricPrecision; text-rendering:geometricPrecision; image-rendering:optimizeQuality; fill-rule:evenodd; clip-rule:evenodd"
viewBox="0 0 63 109"
 xmlns:xlink="http://www.w3.org/1999/xlink">
 <defs>
  <style type="text/css">
   <![CDATA[
    .fil0 {fill:black}
    .fil1 {fill:#F56400}
   ]]>
  </style>
 </defs>
 <g id="Слой_x0020_1">
  <metadata id="CorelCorpID_0Corel-Layer"/>
  <g id="_797132920">
   <path class="fil0" d="M14.21 65.477l6.067 10.624 11.223 -11.822 11.223 11.822 6.067 -10.624 6.28 10.998 5.156 -7.673c-0.262,5.612 -1.398,9.917 -4.235,14.422l-14.505 0c-0.583,0 -1.06,0.477 -1.06,1.06 0,0.585 0.477,1.062 1.06,1.062l13.056 0c-0.143,0.193 -0.289,0.388 -0.439,0.584 -0.5,0.655 -1.155,1.46 -1.648,1.987 -2.032,2.178 -5.2,4.535 -8.68,6.2 -3.752,1.794 -8.016,2.708 -12.275,2.708 -4.259,0 -8.523,-0.914 -12.275,-2.708 -3.479,-1.665 -6.647,-4.022 -8.679,-6.2 -0.494,-0.527 -1.148,-1.332 -1.649,-1.987 -1.174,-1.538 -2.143,-3.022 -2.936,-4.506l8.202 0c0.584,0 1.06,-0.477 1.06,-1.06 0,-0.585 -0.476,-1.061 -1.06,-1.061l-9.22 0c-1.358,-3.202 -1.983,-6.523 -2.168,-10.501l5.155 7.673 6.28 -10.998zm12.565 33.189c3.502,0.416 5.948,0.416 9.45,0l3.135 2.819c0.921,0.931 5.331,4.598 5.679,5.349l-27.078 0c0.348,-0.751 4.758,-4.418 5.679,-5.349l3.135 -2.819zm-0.223 -32.011l-5.839 6.163 -6.504 -11.386 -2.694 4.718 0 -6.574c-0.727,0.086 -1.439,0.066 -2.121,-0.05l0 10.34 -1.471 2.576 -7.438 -11.01c0,1.805 -0.001,3.612 -0.001,5.417 -0.003,4.905 0.614,8.679 2.236,12.802 3.699,9.408 11.779,16.154 21.46,18.527 -1.937,1.766 -3.87,3.536 -5.803,5.306 -1.286,1.176 -3.805,2.766 -2.221,4.679 0.936,1.131 3.046,0.79 4.66,0.79l21.369 0c1.614,0 3.723,0.341 4.659,-0.79 1.585,-1.913 -0.935,-3.503 -2.221,-4.679 -1.933,-1.77 -3.866,-3.54 -5.802,-5.306 9.68,-2.373 17.76,-9.119 21.459,-18.527 1.622,-4.123 2.239,-7.897 2.237,-12.802 0,-1.805 -0.001,-3.612 -0.001,-5.417l-7.438 11.01 -3.809 -6.67 -0.019 -1.989c2.097,0.588 2.334,1.521 4.503,-0.66 1.044,-1.049 2.256,-2.401 3.319,-3.299 -2.161,-2.528 -5.481,-1.281 -7.819,-0.259 0,-0.162 -0.004,-0.651 -0.008,-1.002 1.427,-0.29 8.543,-5.499 10.304,-6.705 0.845,-0.58 2.031,-1.125 1.964,-2.445 -0.047,-0.92 -0.563,-2.629 -0.933,-3.363 -1.04,-2.055 -3.052,-2.781 -6.035,-2.784 -0.182,-1.014 -0.174,-1.271 -0.852,-1.742 -1.765,-1.224 -3.507,-2.088 -5.333,-2.146 -1.827,0.058 -3.569,0.922 -5.334,2.146 -0.677,0.471 -0.67,0.728 -0.852,1.742 -2.983,0.003 -4.995,0.729 -6.034,2.784 -0.371,0.734 -0.887,2.443 -0.933,3.363 -0.068,1.32 1.118,1.865 1.963,2.445 1.804,1.236 8.815,6.387 10.308,6.706l0.04 4.141 -0.727 -1.273 -6.504 11.386 -5.842 -6.167c2.453,-1.643 5.232,-3.658 6.245,-4.35 0.845,-0.58 2.031,-1.126 1.963,-2.446 -0.046,-0.92 -0.562,-2.629 -0.933,-3.363 -1.039,-2.055 -3.052,-2.781 -6.034,-2.783 -0.182,-1.015 -0.175,-1.272 -0.852,-1.742 -1.6,-1.11 -2.962,-1.784 -4.273,-2.022l0 -7.055c0.933,0.554 2.154,1.348 3.747,1.163 1.986,-0.232 3.694,-2.69 5.713,-4.535 0.664,-0.606 2.139,-1.962 2.555,-2.639 -1.514,-1.829 -3.296,-1.923 -6.456,-1.818l3.244 -3.299c1.055,-1.055 2.129,-2.237 3.201,-3.179 -1.229,-2.018 -3.396,-1.973 -6.403,-1.991l6.403 -6.477c-1.598,-2.56 -4.815,-1.715 -6.598,-2.001 0.628,-0.21 5.617,-5.559 6.566,-6.468 -2.252,-2.705 -5.386,-2.072 -8.998,-1.492 0.341,-2.515 -0.292,-4.723 -1.272,-6.671 -0.809,-1.606 -1.364,-2.791 -2.763,-3.483 -1.399,0.692 -1.954,1.877 -2.763,3.483 -0.98,1.948 -1.612,4.156 -1.271,6.671 -3.613,-0.58 -6.747,-1.213 -8.999,1.492 0.95,0.909 5.939,6.258 6.566,6.468 -1.782,0.286 -5,-0.559 -6.598,2.001l6.403 6.477c-3.006,0.018 -5.174,-0.027 -6.403,1.991 1.072,0.942 2.146,2.124 3.202,3.179l3.244 3.299c-3.161,-0.105 -4.942,-0.011 -6.456,1.818 0.415,0.677 1.89,2.033 2.554,2.639 2.02,1.845 3.727,4.303 5.713,4.535 1.593,0.185 2.814,-0.609 3.747,-1.163l0 7.055c-1.311,0.238 -2.673,0.912 -4.272,2.022 -0.678,0.47 -0.671,0.727 -0.852,1.742 -2.983,0.002 -4.995,0.728 -6.035,2.783 -0.371,0.734 -0.886,2.443 -0.933,3.363 -0.068,1.32 1.118,1.866 1.963,2.446 1.038,0.711 3.801,2.718 6.242,4.354zm1.334 -1.408l-7.713 -5.244c0.023,-1.163 0.66,-2.874 1.189,-3.5 0.711,-0.839 2.392,-1.015 3.844,-1.02 0.805,0.46 2.731,5.523 3.716,8.669l-1.036 1.095zm2.554 -2.831c-1.293,-2.79 -2.618,-6.654 -3.255,-8.935 3.116,-2.509 5.514,-2.509 8.63,0 -0.638,2.28 -1.962,6.141 -3.254,8.931l0 -5.732c0,-0.584 -0.476,-1.06 -1.06,-1.06 -0.584,0 -1.061,0.476 -1.061,1.06l0 5.736zm3.489 -21.229c-1.659,-1.564 0.245,-3.029 1.758,-3.506 1.05,-0.332 4.601,-0.934 5.547,-0.349 -2.412,1.434 -4.421,6.574 -7.305,3.855zm-6.616 -3.506c1.513,0.477 3.417,1.942 1.758,3.506 -2.884,2.719 -4.892,-2.421 -7.305,-3.855 0.946,-0.585 4.497,0.017 5.547,0.349zm3.127 -0.793c-0.652,-0.185 -0.656,-0.641 -2.519,-1.243 0.429,-0.193 0.871,-0.271 1.334,-0.499 0.463,-0.227 0.73,-0.488 1.185,-0.637l0 2.379zm2.12 0l0 -2.379c0.455,0.149 0.723,0.41 1.185,0.637 0.464,0.228 0.905,0.306 1.335,0.499 -1.864,0.602 -1.867,1.058 -2.52,1.243zm2.477 -9.722c-1.167,0.517 -1.521,0.717 -2.456,1.353l-0.023 -2.478c0.905,0.442 1.277,0.68 2.479,1.125zm-13.248 1.622c5.122,-0.575 9.706,1.636 7.307,3.947 -1.908,1.837 -3.19,0.229 -4.194,-0.777 -0.879,-0.881 -2.397,-2.197 -3.113,-3.17zm8.63 -0.269c-0.934,-0.636 -1.289,-0.836 -2.456,-1.353 1.202,-0.445 1.574,-0.683 2.479,-1.125l-0.023 2.478zm-0.977 -6.289c0.525,0.882 0.089,1.801 -0.489,2.228 -1.947,1.44 -3.086,0.118 -4.115,-0.915 -0.677,-0.68 -2.713,-2.459 -3.028,-3.212 2.083,-0.173 6.426,-0.124 7.632,1.899zm4.605 2.228c-0.578,-0.427 -1.014,-1.346 -0.488,-2.228 1.206,-2.023 5.548,-2.072 7.631,-1.899 -0.315,0.753 -2.35,2.532 -3.028,3.212 -1.029,1.033 -2.167,2.355 -4.115,0.915zm0.778 -5.717l-1.194 0.622c-0.433,0.248 -0.655,0.47 -1.061,0.687l-0.003 -2.456c0.65,0.38 1.598,0.755 2.258,1.147zm-4.395 1.309c-0.406,-0.217 -0.628,-0.439 -1.061,-0.687l-1.194 -0.622c0.661,-0.392 1.608,-0.767 2.258,-1.147l-0.003 2.456zm4.684 45.197l-1.036 -1.094c0.986,-3.145 2.911,-8.209 3.716,-8.67 1.452,0.005 3.134,0.181 3.844,1.02 0.529,0.626 1.166,2.337 1.19,3.5l-7.714 5.244zm17.318 -2.921c-1.608,-1.469 1.845,-2.145 3.72,-2.145 -0.051,0.116 -2.25,3.486 -3.72,2.145zm-0.083 -6.416c0.248,-1.692 3.245,-10.264 4.304,-10.869 1.453,0.004 3.134,0.18 3.845,1.019 0.529,0.626 1.165,2.338 1.189,3.501l-9.338 6.349zm-3.979 0l-9.338 -6.349c0.024,-1.163 0.661,-2.875 1.19,-3.501 0.71,-0.839 2.392,-1.015 3.844,-1.019 1.059,0.605 4.056,9.177 4.304,10.869zm1.99 -1.903c-1.558,-2.54 -3.499,-8.049 -4.315,-10.969 1.647,-1.326 2.986,-1.905 4.315,-1.88 1.328,-0.025 2.668,0.554 4.315,1.88 -0.817,2.92 -2.757,8.429 -4.315,10.969zm-12.262 -22.049c-1.004,1.006 -2.285,2.614 -4.194,0.777 -2.399,-2.311 2.186,-4.522 7.308,-3.947 -0.717,0.973 -2.235,2.289 -3.114,3.17zm0.064 -16.894c-0.939,0.94 -2.239,2.553 -4.108,0.903 -2.643,-2.333 1.818,-4.667 7.061,-4.071 -0.152,0.649 -0.918,1.133 -1.395,1.611l-1.558 1.557zm-9.216 0.903c-1.869,1.65 -3.169,0.037 -4.108,-0.903l-1.558 -1.557c-0.476,-0.478 -1.243,-0.962 -1.395,-1.611 5.243,-0.596 9.704,1.738 7.061,4.071zm2.554 -4.967c-3.912,0.471 -1.252,-6.688 0,-8.119 1.253,1.431 3.912,8.59 0,8.119zm-3.715 78.393l-8.113 0c-0.583,0 -1.06,0.477 -1.06,1.06 0,0.585 0.477,1.062 1.06,1.062l8.113 0c0.584,0 1.06,-0.477 1.06,-1.061 0,-0.584 -0.476,-1.061 -1.06,-1.061z"/>
   <path class="fil1" d="M15.444 19.466c-3.077,5.934 -8.758,0.076 -9.341,-1.081 -0.691,-1.37 -0.298,-3.124 0.546,-3.908 1.514,-1.408 3.427,-0.927 3.94,-1.013 0.647,-0.107 1.453,-1.608 3.519,-1.125 3.268,0.765 2.663,4.564 1.336,7.127zm-3.468 0.168c1.293,-0.021 2.334,-3.379 1.915,-4.905 -1.99,-0.126 -1.168,1.401 -2.657,1.537 -1.014,0.092 -2.092,-1.18 -2.976,0.172 -0.531,1.72 3.296,3.203 3.718,3.196z"/>
   <path class="fil1" d="M15.104 58.256c5.574,-4.382 2.935,-11.238 1.694,-11.586 -0.81,0.515 -0.4,0.677 -0.729,1.654 -1.352,4.019 -9.739,4.395 -10.095,-0.17 -0.201,-2.563 2.623,-4.515 5.307,-3.863 1.679,0.406 2.022,1.788 0.349,2.363 -1.402,0.482 -2.628,-0.119 -3.382,1.324 -0.007,3.186 7.84,2.066 7.006,-2.312 -0.718,-3.761 -6.085,-3.634 -8.996,-1.79 -9.232,6.678 -0.181,20.072 8.846,14.38zm-5.093 -0.714c-3.425,-0.273 -5.804,-3.932 -5.327,-6.546 1.518,1.428 2.441,2.574 5.326,2.75 3.502,0.213 4.709,-1.216 6.29,-1.928 -0.124,3.122 -2.924,5.993 -6.289,5.724z"/>
  </g>
 </g>
</svg>
