<?xml version="1.0" encoding="UTF-8"?>
<!DOCTYPE svg PUBLIC "-//W3C//DTD SVG 1.1//EN" "http://www.w3.org/Graphics/SVG/1.1/DTD/svg11.dtd">
<!-- Creator: CorelDRAW 2017 -->
<svg xmlns="http://www.w3.org/2000/svg" xml:space="preserve" width="57px" height="109px" version="1.1" style="shape-rendering:geometricPrecision; text-rendering:geometricPrecision; image-rendering:optimizeQuality; fill-rule:evenodd; clip-rule:evenodd"
viewBox="0 0 7.47 14.35"
 xmlns:xlink="http://www.w3.org/1999/xlink">
 <defs>
  <style type="text/css">
   <![CDATA[
    .fil0 {fill:black}
    .fil1 {fill:#F56400}
   ]]>
  </style>
 </defs>
 <g id="Пометки">
  <metadata id="CorelCorpID_0Corel-Layer"/>
  <g id="_1670230402832">
   <path class="fil0" d="M1.44 14.06c0.05,-0.1 0.62,-0.58 0.75,-0.7l0.73 -0.66c0.1,0.07 0.1,0.21 0.3,0.21 0.19,-0.01 0.2,-0.14 0.3,-0.21 0.03,0.03 0.05,0.05 0.09,0.08 0.03,0.04 0.06,0.06 0.1,0.09l1.02 0.92c0.16,0.16 0.23,0.18 0.26,0.27l-3.55 0zm0.42 -3.68c0.13,-0.11 0.38,-0.45 0.63,-0.45 0.31,0.01 0.35,0.31 0.72,0.37 0.42,0.07 0.62,-0.23 0.75,-0.31 0.25,-0.16 0.45,0.01 0.57,0.12 0.07,0.06 0.09,0.07 0.13,0.14 -0.06,0.14 -0.23,0.39 -0.31,0.52 -0.1,0.16 -0.2,0.32 -0.3,0.49l-0.61 0.99c-0.18,0.32 -0.28,0.27 -0.45,0l-1.13 -1.87zm-0.16 -0.24c-0.08,-0.2 -0.43,-0.67 -0.5,-0.85 1.28,-0.02 2.64,0.02 3.92,0l0.12 0.01c-0.09,0.21 -0.32,0.47 -0.41,0.7 -0.14,-0.09 -0.36,-0.44 -0.83,-0.33 -0.32,0.08 -0.34,0.28 -0.54,0.34 -0.08,0.03 -0.16,0.03 -0.24,0.01 -0.27,-0.07 -0.32,-0.41 -0.81,-0.36 -0.39,0.05 -0.5,0.34 -0.71,0.48zm-0.88 -1.67c0.14,-0.03 3.86,-0.01 4.35,-0.01 0.23,0 0.5,-0.04 0.62,0.11 0.14,0.17 0.03,0.4 -0.16,0.44 -0.16,0.03 -3.85,0.01 -4.36,0.01 -0.23,0 -0.5,0.04 -0.62,-0.1 -0.14,-0.18 -0.03,-0.4 0.17,-0.45zm3.62 -1.87c0.81,-0.09 1.25,0.28 0.95,0.53 -0.27,0.22 -0.41,0.02 -0.54,-0.12 -0.13,-0.12 -0.3,-0.28 -0.41,-0.41zm2.59 0c-0.04,0.09 -0.32,0.34 -0.41,0.43 -0.12,0.13 -0.3,0.31 -0.54,0.09 -0.22,-0.2 0.02,-0.39 0.2,-0.46 0.22,-0.07 0.5,-0.09 0.75,-0.06zm-1.18 -0.41c0.35,0.25 0.21,0.11 0.37,0.2 -0.13,0.04 -0.32,0.14 -0.37,0.22l0 -0.42zm-0.6 0.19c0.18,-0.05 0.19,-0.08 0.33,-0.15l-0.01 0.34c-0.1,-0.08 -0.18,-0.12 -0.32,-0.19zm-2.17 -0.74c0.16,0.08 0.26,0.24 0.57,0.19 0.22,-0.04 0.31,-0.2 0.43,-0.29l0.57 0.58c0.04,0.03 0.06,0.05 0.09,0.09l0.09 0.09c0,-0.01 0.01,0.01 0.01,0.01 -0.43,-0.01 -0.56,-0.02 -0.84,0.25 0.08,0.1 0.23,0.23 0.33,0.34 0.59,0.59 0.66,0.76 1.25,0.44l0 0.85 -2.5 0 0 -2.55zm3.95 -0.15c-0.08,0.11 -0.31,0.32 -0.41,0.42 -0.1,0.1 -0.27,0.34 -0.53,0.11 -0.21,-0.19 -0.03,-0.39 0.18,-0.46 0.23,-0.07 0.49,-0.09 0.76,-0.07zm-2.59 0c0.81,-0.07 1.25,0.28 0.93,0.54 -0.25,0.21 -0.4,0 -0.53,-0.13 -0.09,-0.09 -0.34,-0.32 -0.4,-0.41zm1.3 -1.2c0.06,0.09 0.16,0.48 0.2,0.61 0.1,0.28 -0.02,0.46 -0.25,0.48 -0.47,0.03 -0.14,-0.95 0.05,-1.09zm-1.48 0.65c-0.08,0.12 -0.3,0.31 -0.41,0.43 -0.15,0.14 -0.31,0.31 -0.55,0.08 -0.32,-0.29 0.32,-0.61 0.96,-0.51zm-1.64 0.52c-0.37,0.35 -0.64,-0.32 -0.95,-0.51 0.12,-0.07 0.59,0.01 0.72,0.05 0.2,0.06 0.45,0.25 0.23,0.46zm0.46 -0.92c0.06,0.03 0.1,0.07 0.18,0.12 0.06,0.03 0.13,0.04 0.19,0.08 -0.29,0.09 -0.22,0.12 -0.37,0.2l0 -0.4zm-0.61 0.19c0.06,-0.02 0.12,-0.03 0.18,-0.06 0.06,-0.03 0.09,-0.07 0.15,-0.09l0 0.32c-0.08,-0.03 -0.08,-0.09 -0.33,-0.17zm0.16 -0.38c-0.25,0.24 -0.42,0.03 -0.55,-0.1 -0.12,-0.12 -0.32,-0.29 -0.41,-0.42 0.67,-0.07 1.27,0.22 0.96,0.52zm1.63 -0.51c-0.06,0.1 -0.31,0.32 -0.41,0.42 -0.13,0.13 -0.29,0.32 -0.54,0.09 -0.22,-0.2 0,-0.38 0.2,-0.45 0.22,-0.07 0.51,-0.1 0.75,-0.06zm-1.17 -0.41c0.08,0.06 0.21,0.17 0.37,0.18 -0.07,0.04 -0.14,0.06 -0.2,0.1 -0.12,0.07 -0.09,0.08 -0.18,0.13l0.01 -0.41zm-0.61 0.19c0.16,-0.06 0.21,-0.09 0.32,-0.15l0 0.33c-0.12,-0.08 -0.17,-0.11 -0.32,-0.18zm-0.81 -0.89c0.28,-0.03 0.85,-0.02 1,0.24 0.07,0.12 0.01,0.24 -0.06,0.3 -0.26,0.19 -0.41,0.01 -0.54,-0.12 -0.09,-0.09 -0.36,-0.33 -0.4,-0.42zm2.59 0c-0.03,0.09 -0.32,0.34 -0.4,0.43 -0.12,0.11 -0.31,0.31 -0.54,0.1 -0.21,-0.19 -0.03,-0.39 0.18,-0.46 0.22,-0.08 0.51,-0.1 0.76,-0.07zm-1.18 -0.41c0.05,0.03 0.02,0.01 0.05,0.04 0.2,0.14 0.17,0.08 0.3,0.16 -0.12,0.07 -0.27,0.12 -0.35,0.21l0 -0.41zm-0.57 0.2c0.08,-0.05 0.21,-0.1 0.29,-0.15l0 0.32c-0.05,-0.03 -0.08,-0.06 -0.14,-0.09l-0.15 -0.08zm1.74 -0.9c0,0.02 -0.53,0.59 -0.63,0.61 -0.32,0.08 -0.64,-0.36 -0.12,-0.54 0.21,-0.07 0.52,-0.1 0.75,-0.07zm-2.57 0c0.69,-0.08 1.27,0.23 0.93,0.53 -0.25,0.22 -0.42,0.01 -0.54,-0.11 -0.07,-0.08 -0.13,-0.13 -0.2,-0.21 -0.07,-0.06 -0.17,-0.12 -0.19,-0.21zm1.29 -1.21c0.07,0.19 0.14,0.42 0.2,0.61 0.08,0.25 0.02,0.46 -0.25,0.49 -0.49,0.05 -0.13,-0.96 0.05,-1.1zm-1.83 7.29l-0.25 -0.02c-0.05,0.15 -0.02,0.34 -0.02,0.51 -0.74,0.04 -0.76,1.09 0.05,1.1 0.02,0.17 0.78,1.38 0.92,1.6l0.94 1.56c-0.04,0.07 -0.12,0.12 -0.18,0.17l-0.92 0.83c-0.07,0.06 -0.11,0.1 -0.18,0.17 -0.17,0.16 -0.5,0.37 -0.3,0.62 0.13,0.14 0.4,0.1 0.61,0.1l2.82 0c0.21,0 0.48,0.04 0.61,-0.1 0.16,-0.2 -0.01,-0.36 -0.11,-0.46l-1.29 -1.16c-0.06,-0.05 -0.12,-0.09 -0.18,-0.17 0.11,-0.26 1.71,-2.73 1.87,-3.15 0.32,-0.04 0.5,-0.13 0.58,-0.4 0.04,-0.15 0.02,-0.29 -0.04,-0.41 -0.23,-0.46 -0.22,0.29 -0.22,-1.19 0.15,0.08 0.23,0.21 0.5,0.2 0.24,-0.01 0.31,-0.14 0.42,-0.25 0.13,-0.12 0.63,-0.59 0.69,-0.7 -0.12,-0.11 -0.11,-0.16 -0.33,-0.21 -0.16,-0.04 -0.33,-0.03 -0.5,-0.03 0.03,-0.06 0,-0.01 0.03,-0.05l0.08 -0.08c0.16,-0.16 0.68,-0.63 0.73,-0.75 -0.09,-0.07 -0.09,-0.1 -0.23,-0.16 -0.29,-0.13 -0.72,-0.05 -1.01,0.01 0.08,-0.31 -0.02,-0.46 -0.11,-0.74 -0.05,-0.15 -0.15,-0.54 -0.22,-0.66 -0.52,0.07 -0.79,0.94 -0.72,1.38 -0.11,-0.01 -0.24,-0.04 -0.37,-0.05 -0.15,-0.01 -0.27,0 -0.41,0l0.3 -0.29c-0.14,-0.27 -0.48,-0.27 -0.85,-0.27 0.14,-0.16 0.28,-0.29 0.43,-0.44 0.09,-0.09 0.36,-0.33 0.42,-0.43 -0.11,-0.09 -0.14,-0.16 -0.34,-0.2 -0.16,-0.04 -0.33,-0.04 -0.5,-0.03 0.09,-0.18 0.75,-0.71 0.84,-0.88 -0.12,-0.09 -0.12,-0.15 -0.34,-0.2 -0.18,-0.04 -0.34,-0.02 -0.52,-0.03l0.85 -0.85c-0.21,-0.36 -0.78,-0.27 -1.23,-0.18 0.1,-0.39 -0.2,-0.91 -0.32,-1.41 -0.34,0.07 -0.42,0.25 -0.56,0.52 -0.13,0.25 -0.21,0.54 -0.17,0.87 -0.47,-0.07 -0.88,-0.16 -1.17,0.2 0.12,0.12 0.77,0.82 0.86,0.85 -0.24,0.03 -0.66,-0.08 -0.87,0.26l0.84 0.85c-0.39,0 -0.68,-0.01 -0.84,0.26 0.14,0.12 0.28,0.28 0.42,0.41l0.43 0.44c-0.42,-0.02 -0.65,-0.01 -0.85,0.23 0.05,0.09 0.25,0.27 0.33,0.35 0.27,0.24 0.49,0.56 0.75,0.59 0.21,0.03 0.37,-0.08 0.49,-0.15l0 2.51 -1.66 -0.01 0 -0.48z"/>
   <path class="fil1" d="M0.3 6.54c0.2,0.19 0.32,0.34 0.7,0.36 0.46,0.03 0.61,-0.16 0.82,-0.25 -0.01,0.41 -0.38,0.78 -0.82,0.75 -0.45,-0.04 -0.76,-0.52 -0.7,-0.86zm0.59 1.14l0.25 0.02c0.22,-0.09 0.31,-0.04 0.53,-0.21 0.73,-0.57 0.38,-1.47 0.22,-1.52 -0.11,0.07 -0.06,0.09 -0.1,0.22 -0.18,0.53 -1.27,0.58 -1.32,-0.02 -0.03,-0.34 0.34,-0.59 0.69,-0.51 0.22,0.05 0.27,0.24 0.05,0.31 -0.18,0.06 -0.34,-0.01 -0.44,0.17 0,0.42 1.02,0.28 0.91,-0.3 -0.09,-0.49 -0.79,-0.47 -1.17,-0.23 -0.74,0.46 -0.73,1.78 0.38,2.07z"/>
  </g>
 </g>
</svg>
