<?xml version="1.0" encoding="UTF-8"?>
<!DOCTYPE svg PUBLIC "-//W3C//DTD SVG 1.1//EN" "http://www.w3.org/Graphics/SVG/1.1/DTD/svg11.dtd">
<!-- Creator: CorelDRAW 2017 -->
<svg xmlns="http://www.w3.org/2000/svg" xml:space="preserve" width="75px" height="109px" version="1.1" style="shape-rendering:geometricPrecision; text-rendering:geometricPrecision; image-rendering:optimizeQuality; fill-rule:evenodd; clip-rule:evenodd"
viewBox="0 0 5.34 7.77"
 xmlns:xlink="http://www.w3.org/1999/xlink">
 <defs>
  <style type="text/css">
   <![CDATA[
    .fil1 {fill:black}
    .fil0 {fill:#F56400}
   ]]>
  </style>
 </defs>
 <g id="Пометки">
  <metadata id="CorelCorpID_0Corel-Layer"/>
  <g id="_1670227401312">
   <path class="fil0" d="M2.12 3.28c0.06,0.05 0.14,0.19 0.39,0.2 0.25,0.02 0.34,-0.09 0.44,-0.14 -0.02,0.54 -0.83,0.57 -0.83,-0.06zm0.39 0.63l0.16 -0.01c0.11,-0.05 0.16,-0.06 0.24,-0.13 0.21,-0.21 0.26,-0.49 0.13,-0.75 -0.08,-0.14 -0.1,0.06 -0.1,0.06 -0.02,0.09 -0.11,0.17 -0.2,0.21 -0.42,0.17 -0.67,-0.26 -0.42,-0.42 0.1,-0.07 0.34,-0.12 0.38,0.03 -0.01,0.13 -0.37,0.05 -0.32,0.21 0.04,0.12 0.28,0.11 0.39,0.03 0.28,-0.19 0.02,-0.56 -0.39,-0.43 -0.61,0.2 -0.54,1.13 0.13,1.2z"/>
   <path class="fil0" d="M2.84 0.18c0.01,0.1 -0.15,0.33 -0.25,0.24 -0.16,-0.13 -0.21,-0.35 -0.02,-0.22 0.13,0.09 0.11,-0.11 0.27,-0.02zm-0.36 0.36l0.32 0c0.03,-0.04 0.23,-0.18 0.2,-0.37 -0.02,-0.07 -0.07,-0.13 -0.13,-0.15 -0.11,-0.04 -0.14,-0.01 -0.23,0.01 -0.06,0.01 -0.12,-0.05 -0.22,-0.02 -0.07,0.03 -0.12,0.08 -0.13,0.16 -0.02,0.17 0.13,0.3 0.19,0.37z"/>
   <path class="fil1" d="M0.16 7.5c-0.03,-0.11 0.05,-0.19 0.13,-0.2 0.08,-0.02 4.07,-0.01 4.66,-0.01 0.35,0 0.25,0.29 0.1,0.31 -0.08,0.02 -4.07,0 -4.66,0.01 -0.11,0 -0.19,-0.02 -0.23,-0.11zm1.99 -2.38c-0.08,-0.01 -0.41,-0.36 -0.44,-0.41 0.17,-0.03 0.35,-0.02 0.51,0.03 0.35,0.12 0.14,0.42 -0.07,0.38zm0.52 -1.22l-0.16 0.01 0 0.84 -0.1 -0.09c-0.2,-0.14 -0.81,-0.21 -0.94,0.04 0.15,0.14 0.29,0.29 0.45,0.44 0.12,0.13 0.25,0.21 0.47,0.08 0.06,-0.04 0.07,-0.07 0.12,-0.11l0 2.03 -1.88 0c0,-1.42 0,-2.84 0,-4.25 0,-0.59 0.1,-0.97 0.44,-1.42 0.03,-0.05 0.08,-0.1 0.12,-0.14 0.14,-0.16 0.36,-0.32 0.61,-0.44 0.54,-0.26 1.21,-0.26 1.75,0 0.3,0.15 0.53,0.33 0.73,0.59 0.34,0.46 0.43,0.83 0.43,1.42 0,1.41 0,2.82 0.01,4.24l-2.05 0 0 -3.24zm0.13 -3.36l-0.32 0c-0.07,0.02 -0.15,0.02 -0.23,0.04 -0.73,0.14 -1.35,0.64 -1.62,1.34 -0.12,0.29 -0.16,0.56 -0.16,0.91 0,1.43 0,2.87 0,4.31 -0.16,0 -0.29,-0.01 -0.38,0.09 -0.08,0.08 -0.12,0.22 -0.06,0.35 0.12,0.25 0.45,0.18 0.76,0.18 1.25,0 2.51,0 3.76,0 0.32,0 0.66,0.07 0.77,-0.19 0.05,-0.13 0,-0.27 -0.07,-0.35 -0.1,-0.09 -0.22,-0.08 -0.38,-0.08 0,-1.45 0,-2.89 0,-4.34 0,-0.35 -0.05,-0.62 -0.17,-0.91 -0.32,-0.77 -1.04,-1.3 -1.9,-1.35z"/>
   <path class="fil1" d="M3.53 4.4c0,0 0.01,0 -0.01,0.03 -0.01,0.01 -0.03,0.03 -0.04,0.04 -0.23,0.22 -0.38,0.46 -0.58,0.27 -0.26,-0.24 0.33,-0.44 0.63,-0.34zm-0.18 -0.18c-0.73,0 -0.82,0.51 -0.47,0.7 0.27,0.14 0.41,-0.03 0.52,-0.15 0.08,-0.07 0.36,-0.34 0.39,-0.4 -0.11,-0.12 -0.23,-0.15 -0.44,-0.15z"/>
   <path class="fil1" d="M3.78 6.37c-0.08,-0.03 -0.16,-0.09 -0.24,-0.14 -0.12,-0.06 -0.13,-0.16 -0.06,-0.23 0.14,-0.15 0.29,0.23 0.3,0.37zm0.09 0.24c0.07,-0.09 0.09,-0.14 0.06,-0.29 -0.02,-0.16 -0.11,-0.39 -0.25,-0.47 -0.31,-0.19 -0.56,0.31 -0.27,0.49 0.15,0.09 0.32,0.17 0.46,0.27z"/>
   <path class="fil1" d="M1.23 3.8c0.02,-0.1 0.1,-0.05 0.14,-0.11 0.05,-0.05 0,-0.13 0.06,-0.17 0.12,-0.09 0.17,0.22 0.13,0.29 -0.03,0.05 -0.23,0.07 -0.33,-0.01zm0.49 0.03c0.04,-0.18 -0.04,-0.41 -0.16,-0.47 -0.14,-0.06 -0.27,0.04 -0.31,0.16 -0.03,0.08 -0.01,0.04 -0.07,0.09 -0.16,0.11 -0.12,0.33 0.07,0.38 0.13,0.03 0.43,0.04 0.47,-0.16z"/>
  </g>
 </g>
</svg>
