<?xml version="1.0" encoding="UTF-8"?>
<!DOCTYPE svg PUBLIC "-//W3C//DTD SVG 1.1//EN" "http://www.w3.org/Graphics/SVG/1.1/DTD/svg11.dtd">
<!-- Creator: CorelDRAW 2017 -->
<svg xmlns="http://www.w3.org/2000/svg" xml:space="preserve" width="95px" height="102px" version="1.1" style="shape-rendering:geometricPrecision; text-rendering:geometricPrecision; image-rendering:optimizeQuality; fill-rule:evenodd; clip-rule:evenodd"
viewBox="0 0 7.51 8.09"
 xmlns:xlink="http://www.w3.org/1999/xlink">
 <defs>
  <style type="text/css">
   <![CDATA[
    .fil1 {fill:black}
    .fil0 {fill:#F56400}
   ]]>
  </style>
 </defs>
 <g id="Пометки">
  <metadata id="CorelCorpID_0Corel-Layer"/>
  <path class="fil0" d="M4.04 0.57c0.24,0.46 0.69,0 0.73,-0.09 0.06,-0.11 0.03,-0.24 -0.04,-0.3 -0.12,-0.12 -0.27,-0.08 -0.31,-0.08 -0.05,-0.01 -0.11,-0.13 -0.27,-0.09 -0.26,0.06 -0.21,0.36 -0.11,0.56zm0.27 0.01c-0.1,0 -0.18,-0.27 -0.15,-0.38 0.16,-0.01 0.1,0.11 0.21,0.12 0.08,0 0.17,-0.1 0.24,0.01 0.04,0.13 -0.26,0.25 -0.3,0.25z"/>
  <path class="fil1" d="M2.42 5.01l-1.27 0 -0.03 0c-0.35,-0.6 -0.54,-1.18 -0.74,-1.77l-0.05 -0.15c-0.11,-0.34 -0.19,-0.77 -0.17,-1.13 0.01,-0.18 0.05,-0.34 0.12,-0.45 0.52,-0.75 1.65,0.5 0.41,1.28 0.35,-0.04 0.78,-0.04 0.92,-0.43 0.19,0.59 -0.02,1.07 -0.37,1.55 0.55,0.02 0.82,-0.21 0.89,-0.61 0.16,0.62 0,1.15 -0.54,1.51 0.32,0.02 0.56,0.05 0.77,-0.24l0.06 0.44zm0.16 0l-0.12 -0.96 -0.01 -0.05 -0.34 -2.63c-0.01,-0.1 0.02,-0.19 0.07,-0.26 0.06,-0.07 0.14,-0.12 0.23,-0.13 0.09,-0.01 0.18,0.02 0.25,0.07 0.07,0.05 0.12,0.14 0.14,0.23l0.47 3.73 -0.69 0zm-0.51 -0.39c0.11,-0.15 0.19,-0.37 0.23,-0.59l0.03 0.28c-0.04,0.1 -0.1,0.2 -0.19,0.27 -0.03,0.02 -0.05,0.03 -0.07,0.04zm-1.16 0.65c0.06,-0.06 0.15,-0.1 0.24,-0.1l1.29 0 0.12 0 0.74 0 0 0.26c0,0.07 0.03,0.13 0.07,0.17 0.04,0.04 0.1,0.07 0.17,0.07l0.5 0c0.06,0 0.12,-0.03 0.16,-0.07 0.05,-0.04 0.07,-0.1 0.07,-0.17l0 -0.26 0.18 0 0.55 0 0.34 0 0.99 0 0.09 0c0.09,0 0.18,0.04 0.24,0.1 0.06,0.07 0.1,0.15 0.1,0.25 0,0.09 -0.04,0.18 -0.1,0.24 -0.06,0.06 -0.15,0.1 -0.24,0.1l-5.27 0c-0.09,0 -0.18,-0.04 -0.24,-0.1 -0.06,-0.06 -0.1,-0.15 -0.1,-0.24 0,-0.1 0.04,-0.18 0.1,-0.25zm0.32 0.75l5.11 0 0 0.51c-0.06,-0.03 -0.12,-0.04 -0.18,-0.04 -0.08,0 -0.17,0.03 -0.26,0.09 -0.11,0.08 -0.24,0.17 -0.34,0.25 -0.04,0.04 -0.08,0.06 -0.12,0.06 -0.04,0 -0.08,-0.02 -0.12,-0.06l-0.26 -0.24c-0.07,-0.07 -0.15,-0.1 -0.23,-0.1 -0.08,0 -0.15,0.04 -0.22,0.1l-0.27 0.25c-0.06,0.06 -0.12,0.06 -0.18,0l-0.29 -0.25c-0.08,-0.07 -0.16,-0.1 -0.24,-0.1 -0.07,0 -0.15,0.04 -0.22,0.1l-0.29 0.25c-0.03,0.03 -0.05,0.04 -0.08,0.04 -0.02,0 -0.05,-0.01 -0.08,-0.04l-0.29 -0.25c-0.07,-0.07 -0.15,-0.1 -0.23,-0.1 -0.08,0.01 -0.15,0.04 -0.23,0.1 -0.09,0.07 -0.18,0.16 -0.27,0.24 -0.04,0.04 -0.07,0.05 -0.09,0.05 -0.03,0 -0.06,-0.02 -0.1,-0.05 -0.09,-0.08 -0.18,-0.16 -0.27,-0.24 -0.05,-0.05 -0.11,-0.08 -0.17,-0.09 -0.03,0 -0.05,-0.01 -0.08,0l0 -0.48zm0.15 0.69l0.27 0.24c0.06,0.05 0.12,0.09 0.19,0.09 0.07,0 0.14,-0.03 0.21,-0.09l0.27 -0.24c0.04,-0.04 0.08,-0.06 0.12,-0.06 0.04,0 0.08,0.02 0.13,0.06l0.28 0.24c0.06,0.06 0.12,0.09 0.19,0.09 0.07,0 0.13,-0.03 0.19,-0.09l0.29 -0.24c0.04,-0.04 0.08,-0.06 0.12,-0.06 0.04,0 0.08,0.02 0.13,0.06l0.28 0.25c0.13,0.12 0.26,0.12 0.39,0l0.27 -0.25c0.04,-0.04 0.08,-0.06 0.12,-0.06 0.04,0 0.08,0.02 0.12,0.06l0.26 0.24c0.08,0.07 0.16,0.1 0.24,0.1 0.07,-0.01 0.14,-0.04 0.21,-0.1l0.33 -0.24c0.06,-0.04 0.12,-0.06 0.18,-0.06 0.05,0 0.1,0.02 0.15,0.06l0.02 0.01 0 0.87c0,0.1 -0.04,0.18 -0.1,0.24 -0.06,0.07 -0.15,0.11 -0.25,0.11l-4.41 0c-0.1,0 -0.18,-0.04 -0.25,-0.11 -0.06,-0.06 -0.1,-0.14 -0.1,-0.24l0 -0.93c0.02,-0.01 0.04,-0.01 0.05,0 0.03,0 0.07,0.02 0.1,0.05zm0.2 1.38l4.41 0c0.14,0 0.27,-0.05 0.36,-0.14 0.09,-0.1 0.15,-0.22 0.15,-0.36l0 -1.58c0.1,-0.01 0.2,-0.07 0.27,-0.14 0.09,-0.09 0.15,-0.22 0.15,-0.35 0,-0.14 -0.06,-0.27 -0.15,-0.36 -0.07,-0.07 -0.17,-0.12 -0.27,-0.14 0.13,-0.13 0.27,-0.28 0.41,-0.46 0.16,-0.21 0.31,-0.46 0.46,-0.76 0.13,-0.28 0.16,-0.51 0.13,-0.69 -0.03,-0.14 -0.09,-0.24 -0.16,-0.32 -0.07,-0.07 -0.14,-0.11 -0.22,-0.14 0.03,-0.16 0.04,-0.3 0.03,-0.43 -0.01,-0.15 -0.05,-0.29 -0.1,-0.41l-0.15 0.07c0.05,0.1 0.08,0.22 0.09,0.35 0.01,0.12 0,0.25 -0.03,0.4 -0.08,0 -0.16,0.02 -0.23,0.06 -0.31,0.17 -0.42,0.5 -0.55,0.92 -0.14,0.42 -0.3,0.92 -0.71,1.4l-0.39 0 0.84 -1.72 0 0c0.05,-0.12 0.1,-0.23 0.08,-0.35 -0.02,-0.12 -0.09,-0.23 -0.28,-0.32l0 0 0.46 -1.04 -0.4 -0.11 0.06 -0.21 -0.69 -0.18 -0.01 0.41 -0.25 -0.05 0.06 1.03c-0.11,-0.01 -0.22,0.03 -0.31,0.09 -0.09,0.07 -0.16,0.18 -0.18,0.31 -0.07,0.44 -0.02,1.52 -0.01,2.14l-0.18 0 0 -2.52c0,-0.06 -0.02,-0.12 -0.07,-0.17 -0.04,-0.04 -0.1,-0.06 -0.16,-0.06l-0.5 0c-0.07,0 -0.13,0.02 -0.17,0.06 -0.04,0.05 -0.07,0.11 -0.07,0.17l0 1.48 -0.35 -2.71c-0.02,-0.14 -0.09,-0.26 -0.19,-0.33 -0.06,-0.05 -0.13,-0.08 -0.2,-0.1l0.06 -0.4 -0.62 0.15 0.19 0.32c-0.05,0.03 -0.1,0.07 -0.13,0.12 -0.08,0.1 -0.12,0.23 -0.1,0.37l0.2 1.61 -0.19 -0.24c0.04,0.38 0.02,0.86 -0.43,1 0.46,-0.73 0.35,-1.27 -0.04,-2 -0.01,0.31 0.04,0.67 -0.31,0.79 0.71,-1.11 -0.61,-1.78 -1.04,-1.12 -0.09,0.13 -0.13,0.32 -0.15,0.52 -0.02,0.38 0.06,0.83 0.18,1.19l0.05 0.15c0.2,0.58 0.39,1.16 0.73,1.76 -0.06,0.03 -0.12,0.07 -0.16,0.11 -0.09,0.09 -0.15,0.22 -0.15,0.36 0,0.13 0.06,0.26 0.15,0.35 0.07,0.07 0.17,0.13 0.28,0.14l0 1.58c0,0.14 0.05,0.26 0.14,0.36 0.09,0.09 0.22,0.14 0.36,0.14zm1.88 -3.08l0 -2.52c0,-0.02 0.01,-0.04 0.02,-0.05 0.02,-0.02 0.04,-0.03 0.06,-0.03l0.5 0c0.02,0 0.04,0.01 0.05,0.03 0.02,0.01 0.02,0.03 0.02,0.05l0 2.52 0 0.42c0,0.02 0,0.04 -0.02,0.06 -0.01,0.01 -0.03,0.02 -0.05,0.02l-0.5 0c-0.02,0 -0.04,-0.01 -0.06,-0.02 -0.01,-0.02 -0.02,-0.04 -0.02,-0.06l0 -0.42zm1.15 0l0 -2.11 0.01 -0.01c0.01,-0.09 0.05,-0.16 0.11,-0.2 0.06,-0.05 0.14,-0.07 0.21,-0.06l0.02 0 0.7 0.14c0.12,0.06 0.17,0.13 0.18,0.19 0.01,0.08 -0.02,0.17 -0.06,0.26l-0.42 0.85 -0.33 -0.04 -0.02 0.15 0.28 0.04 -0.39 0.79 -0.29 0zm1.72 -1.35c0.12,-0.39 0.22,-0.7 0.47,-0.84 0.07,-0.03 0.15,-0.04 0.23,-0.03 0.07,0.01 0.14,0.05 0.19,0.11 0.06,0.05 0.1,0.13 0.12,0.23 0.03,0.16 0,0.36 -0.12,0.6 -0.13,0.29 -0.29,0.53 -0.44,0.74 -0.17,0.22 -0.34,0.4 -0.51,0.54l-0.59 0c0.36,-0.47 0.52,-0.95 0.65,-1.35zm-0.77 -1.08l-0.08 -0.01 0.26 -0.95 0.23 0.06 -0.41 0.9zm-0.45 -0.08l-0.05 -0.86 0.08 0.01 0 0.85 -0.03 0zm0.18 0.03l0.01 -1.25 0.35 0.09 -0.33 1.17 -0.03 -0.01zm-2.9 -1.7l-0.05 0 -0.09 -0.15 0.18 -0.04 -0.03 0.18 -0.01 0.01zm2.29 2.66l0.4 0.1 0.04 -0.15 -0.41 -0.11 -0.03 0.16zm0.38 -0.4l0.69 0.15 0.03 -0.15 -0.68 -0.15 -0.04 0.15z"/>
 </g>
</svg>
