<?xml version="1.0" encoding="UTF-8"?>
<!DOCTYPE svg PUBLIC "-//W3C//DTD SVG 1.1//EN" "http://www.w3.org/Graphics/SVG/1.1/DTD/svg11.dtd">

<svg xmlns="http://www.w3.org/2000/svg" xml:space="preserve" width="256px" height="31px" version="1.1" style="shape-rendering:geometricPrecision; text-rendering:geometricPrecision; image-rendering:optimizeQuality; fill-rule:evenodd; clip-rule:evenodd"
viewBox="0 0 132.43 16.22"
 xmlns:xlink="http://www.w3.org/1999/xlink">
 <defs>
  <style type="text/css">
 
  </style>
 </defs>
 <g id="Слой_x0020_1">
  <metadata id="CorelCorpID_0Corel-Layer"/>
  <path class="fil0" d="M19.9 15.89l0 -15.62 2.68 0 0 13.08 7.19 0 0 2.54 -9.87 0zm-10.85 -6.09l-6.39 0 0 6.09 -2.66 0 0 -15.62 9.87 0 0 2.53 -7.21 0 0 4.55 6.39 0 0 2.45zm55.03 6.09l0 -15.62 4.86 0c4.04,0 6.07,2.29 6.07,5.55 0,2.16 -0.87,3.87 -2.77,4.78l3.89 5.29 -3.13 0 -3.22 -4.6 -3.02 0.06 0 4.54 -2.68 0zm21.8 0l0 -15.62 2.67 0 0 15.62 -2.67 0zm13.96 0l0 -15.62 9.87 0 0 2.53 -7.2 0 0 4.01 7.2 0 0 2.53 -7.2 0 0 4.01 7.2 0 0 2.54 -9.87 0zm20.54 0l0 -15.62 4.86 0c4.04,0 6.07,2.29 6.07,5.55 0,2.16 -0.86,3.87 -2.76,4.78l3.88 5.29 -3.13 0 -3.22 -4.6 -3.02 0.06 0 4.54 -2.68 0zm-53.62 -13.09l0 6.11 1.98 0c2.51,0 3.37,-1.38 3.37,-3.09 0,-1.71 -0.84,-3.02 -3.37,-3.02l-1.98 0zm56.3 0l0 6.11 1.99 0c2.5,0 3.37,-1.38 3.37,-3.09 0,-1.71 -0.85,-3.02 -3.37,-3.02l-1.99 0z"/>
  <path class="fil1" d="M45.69 16.22c-4.35,0 -7.88,-3.63 -7.88,-8.11 0,-4.53 3.61,-8.19 8.02,-8.11 2.35,0.06 4.23,1.53 4.23,3.34 0,1.84 -1.96,3.33 -4.37,3.33 -1.14,0 -2.07,-0.58 -2.07,-1.31 0,-0.72 0.93,-1.31 2.07,-1.31 1.15,0 2.07,-0.58 2.07,-1.3 0,-0.73 -0.92,-1.31 -2.07,-1.31 -2.41,0 -4.36,1.49 -4.36,3.33 0,1.85 1.95,3.34 4.36,3.34 3.12,0 5.64,-1.82 5.64,-4.06 0,-0.67 -0.11,-1.32 -0.32,-1.93 1.58,1.49 2.57,3.62 2.57,5.99 0,4.48 -3.53,8.11 -7.89,8.11z"/>
  <path class="fil1" d="M45.69 5.9c1.45,0 3.6,-0.83 3.6,-2.56 0,-1.05 -0.79,-1.77 -1.73,-2.18 0.56,0.35 0.98,0.87 0.98,1.59 0,1.43 -1.64,2.08 -2.85,2.08 -0.25,0 -1.29,0.17 -1.29,0.53 0,0.36 1.04,0.54 1.29,0.54z"/>
 </g>
</svg>
