<?xml version="1.0" encoding="UTF-8"?>
<!DOCTYPE svg PUBLIC "-//W3C//DTD SVG 1.1//EN" "http://www.w3.org/Graphics/SVG/1.1/DTD/svg11.dtd">
<!-- Creator: CorelDRAW 2017 -->
<svg xmlns="http://www.w3.org/2000/svg" xml:space="preserve" width="54px" height="109px" version="1.1" style="shape-rendering:geometricPrecision; text-rendering:geometricPrecision; image-rendering:optimizeQuality; fill-rule:evenodd; clip-rule:evenodd"
viewBox="0 0 14.19 28.48"
 xmlns:xlink="http://www.w3.org/1999/xlink">
 <defs>
  <style type="text/css">
   <![CDATA[
    .fil1 {fill:black}
    .fil0 {fill:#F56400}
   ]]>
  </style>
 </defs>
 <g id="Пометки">
  <metadata id="CorelCorpID_0Corel-Layer"/>
  <g id="_1670230404112">
   <path class="fil0" d="M0.47 7.32c0.25,-0.13 0.36,0.01 0.52,-0.1 0.15,-0.11 0.08,-0.32 0.3,-0.39 0.51,-0.14 0.13,0.83 0.09,0.96 -0.38,0.02 -0.88,-0.13 -0.91,-0.47zm0.82 -0.95c-0.47,0.09 -0.45,0.27 -0.59,0.38 -0.21,0.15 -0.46,0.02 -0.63,0.36 -0.28,0.58 0.36,0.95 0.79,1.08 0.68,0.21 0.96,-0.06 1.1,-0.67 0.13,-0.59 -0.03,-1.27 -0.67,-1.15z"/>
   <path class="fil0" d="M5.53 18.77l0.51 -0.07c0.1,-0.16 0.11,-0.49 0.4,-0.44 0.22,0.04 0.16,0.47 0.1,0.68 -0.08,0.32 -0.16,0.35 -0.5,0.26 -0.25,-0.08 -0.48,-0.14 -0.51,-0.43zm0.68 -0.94c-0.12,0.04 -0.21,0.09 -0.29,0.17 -0.18,0.17 -0.07,0.17 -0.24,0.25 -0.27,0.12 -0.46,0.08 -0.59,0.41 -0.2,0.54 0.43,0.87 0.86,0.99 0.73,0.19 0.97,-0.14 1.07,-0.77 0.1,-0.6 -0.13,-1.26 -0.81,-1.05z"/>
   <path class="fil1" d="M6.29 23.85c1.53,0 1.18,-0.19 1.7,0.73 0.1,0.19 0.32,0.7 0.49,0.74 0.19,0.04 0.31,-0.09 0.28,-0.26 -0.02,-0.17 -0.51,-0.86 -0.63,-1.21l0.85 0c0.17,0.85 1.44,1.99 1.29,2.99 -0.23,1.48 -1.97,1.16 -3.1,1.16 -0.49,0 -1.64,0.05 -2.04,-0.07 -0.48,-0.15 -0.9,-0.6 -0.96,-1.19 -0.06,-0.64 0.6,-1.54 0.97,-2.19 0.1,-0.17 0.29,-0.58 0.38,-0.7l0.2 0c0.3,0.32 0.67,1.41 0.92,1.46 0.17,0.04 0.31,-0.08 0.29,-0.25l-0.64 -1.21zm3.88 -0.74c-0.17,0.4 -0.83,0.28 -1.43,0.28 -0.5,0 -4.02,0.05 -4.24,-0.04 -0.19,-0.08 -0.35,-0.33 -0.22,-0.61 0.17,-0.4 0.97,-0.26 1.45,-0.26 0.51,0 4,-0.06 4.23,0.04 0.17,0.07 0.33,0.33 0.21,0.59zm-6.76 -9.11c0.78,-0.37 0.78,-0.69 1.27,-0.51 0.4,0.15 0.54,0.66 1.32,0.49 0.56,-0.11 0.68,-0.7 1.29,-0.49 0.27,0.1 0.6,0.68 1.35,0.49 0.52,-0.14 0.69,-0.73 1.29,-0.47 0.37,0.15 0.51,0.69 1.31,0.55 0.72,-0.13 1.08,-1.21 1.87,-0.36 0.18,0.19 0.28,0.32 0.5,0.49 -0.03,0.28 -1.91,3.41 -2.21,3.94 -0.37,0.65 -0.73,1.28 -1.12,1.93l-1.14 1.95 -3.85 0 -1.13 -1.92c-0.31,-0.55 -3.26,-5.54 -3.34,-5.84 0.28,-0.36 0.62,-0.82 1.08,-0.8 0.29,0.02 0.45,0.22 0.6,0.34 0.31,0.24 0.29,0.03 0.52,0.47l1.72 3.09c0.11,0.19 0.26,0.6 0.54,0.36 0.21,-0.17 -0.31,-0.89 -0.5,-1.25 -0.23,-0.43 -0.47,-0.83 -0.69,-1.24l-0.68 -1.22zm-2.66 -0.31c-0.12,-0.2 0.06,-0.57 0.17,-0.74 0.13,-0.18 0.32,-0.35 0.53,-0.45 0.45,-0.23 1.29,-0.15 1.85,-0.15l7.82 0c0.58,0 1.39,-0.09 1.85,0.14 0.36,0.18 0.74,0.62 0.75,1.17 -0.26,-0.24 -0.73,-0.98 -1.6,-0.66 -0.47,0.17 -0.96,1.02 -1.55,0.41 -0.43,-0.44 -1.11,-0.62 -1.68,-0.13 -0.12,0.1 -0.14,0.19 -0.34,0.24 -0.48,0.13 -0.65,-0.21 -0.83,-0.32 -1.09,-0.73 -1.48,0.56 -2.19,0.31 -0.27,-0.09 -0.3,-0.32 -0.72,-0.46 -0.98,-0.32 -1.1,0.6 -1.78,0.49 -0.36,-0.06 -0.36,-0.29 -0.73,-0.45 -0.73,-0.33 -1.34,0.23 -1.55,0.6zm3.48 -2.18c0.62,0.06 1.3,-0.83 1.83,-1.01 0.03,0.43 -0.05,1.03 0.07,1.39l-1.97 -0.01c0.04,-0.1 0.06,-0.2 0.07,-0.37zm7.86 -0.51c-0.08,0.17 -0.26,0.31 -0.42,0.47 -0.56,0.57 -1.28,-0.47 0.42,-0.47zm-6.84 -1.86c0.62,-0.06 0.85,0.19 0.81,0.77l-1.64 1.09 0.83 -1.86zm-3.4 0.75c0.08,-0.6 0.24,-0.74 0.87,-0.76 0.18,0.39 0.73,1.49 0.8,1.88 -0.24,-0.12 -0.58,-0.4 -0.82,-0.56 -0.2,-0.14 -0.65,-0.47 -0.85,-0.56zm1.4 -1.22c0.43,-0.43 1.03,-0.4 1.45,0l-0.47 1.36c-0.01,-0.3 0.14,-1.26 -0.28,-1.15 -0.32,0.08 -0.18,1.01 -0.18,1.31 -0.18,-0.39 -0.4,-1.07 -0.52,-1.52zm7.75 1.2c0.02,-0.18 0.83,-2.8 1.11,-2.8 0.41,0 0.76,0.03 0.99,0.3 0.17,0.2 0.3,0.56 0.3,0.88l-2.4 1.62zm-3.5 -1.65c0.11,-0.92 0.41,-1.15 1.38,-1.15 0.41,0.8 0.79,1.87 1.06,2.82l-1.23 -0.83c-0.28,-0.19 -1.03,-0.64 -1.21,-0.84zm1.84 -1.69c1.38,-0.95 1.67,-0.24 2.25,-0.03 -0.1,0.62 -0.63,1.89 -0.9,2.39 -0.05,-0.35 0.05,-0.71 -0.42,-0.53 -0.05,0.14 -0.05,0.31 -0.06,0.49 -0.22,-0.41 -0.82,-1.82 -0.87,-2.32zm-2.44 -0.1c0.1,-0.17 0.34,-0.24 0.61,-0.22 -0.12,0.11 -0.28,0.32 -0.43,0.37 -0.12,-0.05 -0.13,-0.05 -0.18,-0.15zm-2.1 -1.02c0.48,0 1.38,0.17 0.96,0.56 -0.38,0.34 -0.95,-0.53 -0.96,-0.56zm2.15 -1.11c0.06,-0.44 0.84,-2.67 1.12,-2.83 0.37,0 0.81,0.05 0.99,0.27 0.14,0.16 0.31,0.61 0.31,0.91l-2.42 1.65zm-3.47 -1.65c0,-0.32 0.19,-0.8 0.36,-0.95 0.22,-0.2 0.66,-0.24 1.03,-0.22 0.25,0.75 0.76,1.67 1.03,2.8l-2.42 -1.63zm1.81 -1.71c0.85,-0.59 1.39,-0.69 2.26,0.01 -0.21,0.76 -0.72,2.19 -1.12,2.85 -0.31,-0.48 -0.99,-2.29 -1.14,-2.86zm1.24 4.14c0.08,-0.15 -0.03,-0.04 0.21,-0.11 0.27,-0.09 2.36,-1.56 2.6,-1.73 0.22,-0.15 0.53,-0.29 0.51,-0.63 -0.01,-0.24 -0.15,-0.68 -0.24,-0.88 -0.27,-0.53 -0.8,-0.72 -1.57,-0.72 -0.05,-0.26 -0.05,-0.33 -0.22,-0.45 -0.78,-0.54 -1.54,-0.81 -2.41,-0.25 -0.34,0.21 -0.54,0.24 -0.6,0.7 -0.81,0.02 -1.27,0.16 -1.55,0.74 -0.56,1.15 -0.08,1.25 0.29,1.5l2.39 1.62c0.17,0.12 0.13,0.15 0.13,0.38 -0.61,-0.27 -1.47,-0.59 -2.03,0.06 0.27,0.24 0.59,0.59 0.86,0.86 0.56,0.57 0.63,0.33 1.17,0.17l-0.01 2.48c-0.21,-0.1 -0.53,-0.15 -0.83,-0.15 -0.24,-0.32 -0.03,-0.28 -0.49,-0.54 -0.21,-0.12 -0.46,-0.24 -0.77,-0.24 -0.3,0 -0.56,0.12 -0.77,0.24 -0.36,0.22 -0.27,0.14 -0.44,0.53 -0.69,0.06 -1.28,0.18 -1.36,1.14 -0.03,0.33 0.1,0.39 0.3,0.52 0.34,0.24 0.65,0.44 0.98,0.68 0.36,0.25 0.58,0.51 1.09,0.52 0,0.16 0.03,0.28 0.08,0.36 -1.25,0.08 -2.81,-0.38 -3.47,1.12 -0.49,1.12 0.32,2.02 1.02,3.24 0.55,0.99 1.12,1.94 1.68,2.91 0.31,0.55 1.46,2.46 1.64,2.86 -0.58,0.05 -1.02,0.41 -0.94,1.06 0.08,0.65 0.66,0.78 1.2,0.78 -0.09,0.32 -0.67,1.21 -0.86,1.56 -0.33,0.58 -0.58,1.01 -0.31,1.82 0.51,1.53 2.17,1.23 3.49,1.23 1.32,0 2.94,0.23 3.38,-1.34 0.21,-0.77 -0.09,-1.27 -0.39,-1.79 -0.14,-0.24 -0.8,-1.3 -0.81,-1.48 0.38,0 0.57,0.01 0.84,-0.19 0.58,-0.46 0.5,-1.57 -0.61,-1.65 0.09,-0.27 1.27,-2.22 1.52,-2.66 0.51,-0.92 1.02,-1.77 1.54,-2.68 0.41,-0.72 1.38,-2.17 1.42,-2.82 0.04,-0.69 -0.28,-1.21 -0.62,-1.5 -0.5,-0.42 -0.86,-0.44 -1.66,-0.46 0.18,-0.33 0.81,-0.7 0.93,-1.03 -0.37,-0.27 -0.49,-0.38 -1.18,-0.3 -0.42,0.04 -0.82,0.19 -0.98,0.44l-0.01 -0.35 1.38 -0.92c0.46,-0.31 0.87,-0.59 1.34,-0.91 0.25,-0.17 0.5,-0.25 0.48,-0.64 -0.01,-0.25 -0.15,-0.66 -0.26,-0.87 -0.28,-0.55 -0.76,-0.7 -1.55,-0.7 -0.01,-0.41 -0.29,-0.53 -0.59,-0.71 -0.71,-0.42 -1.32,-0.4 -2.03,0.01 -0.29,0.18 -0.56,0.26 -0.58,0.68 -0.59,0.09 -1.24,0.01 -1.59,0.75 -0.5,1.08 -0.15,1.2 0.28,1.5 0.48,0.33 2.25,1.57 2.66,1.76 0,0.38 -0.03,0.94 0.04,1.29l-3.78 0c0.14,-0.47 0.01,-1.18 0.11,-1.92 0.02,-0.2 -0.05,-0.35 -0.05,-0.57 -0.02,-0.83 -0.03,-1.8 0.01,-2.61 0.11,0.08 0.26,0.23 0.5,0.25 0.29,0.03 0.4,-0.09 0.53,-0.21 0.2,-0.21 0.58,-0.54 0.72,-0.76 -0.47,-0.63 -1.55,-0.26 -1.75,0.02l-0.01 -1.01z"/>
  </g>
 </g>
</svg>
