<?xml version="1.0" encoding="UTF-8"?>
<!DOCTYPE svg PUBLIC "-//W3C//DTD SVG 1.1//EN" "http://www.w3.org/Graphics/SVG/1.1/DTD/svg11.dtd">
<!-- Creator: CorelDRAW 2017 -->
<svg xmlns="http://www.w3.org/2000/svg" xml:space="preserve" width="75px" height="109px" version="1.1" style="shape-rendering:geometricPrecision; text-rendering:geometricPrecision; image-rendering:optimizeQuality; fill-rule:evenodd; clip-rule:evenodd"
viewBox="0 0 71.38 103.73"
 xmlns:xlink="http://www.w3.org/1999/xlink">
 <defs>
  <style type="text/css">
   <![CDATA[
    .fil1 {fill:black}
    .fil0 {fill:#F56400}
   ]]>
  </style>
 </defs>
 <g id="Пометки">
  <metadata id="CorelCorpID_0Corel-Layer"/>
  <g id="_1670295557264">
   <path class="fil0" d="M18.15 39.6c1.32,-1.12 1.5,-0.15 2.74,-0.47 1.05,-0.27 0.57,-1.14 1.25,-1.89 0.87,-0.96 3.03,-1.43 2.49,2.15 -0.48,3.18 -1.09,3.63 -3.07,3.04 -1.43,-0.43 -3.56,-1.2 -3.41,-2.83zm2.41 5c1.92,-0.42 2.56,-0.57 4.67,-0.42 0.34,-0.92 0.97,-1.07 1.53,-3.64 1.72,-7.93 -5.88,-7.3 -6.96,-3.81 -4.44,0.13 -5.3,4.24 -2.1,6.45 1.03,0.71 1.81,0.86 2.86,1.42z"/>
   <path class="fil0" d="M63.71 64.38c-1.02,-0.21 -2.09,-3.17 -1.65,-4.57 1.81,-0.33 1.19,1.36 2.61,1.41 0.96,0.03 1.67,-1.13 2.77,0.21 0.11,1.16 -0.71,1.56 -1.42,2.02 -0.46,0.3 -1.59,1.07 -2.31,0.93zm-1.65 -6.94c-3.14,0.53 -2.76,4.12 -1.57,6.51 1.59,3.2 3.23,3.53 6.19,1.8 1.16,-0.67 2.01,-1.25 2.63,-2.28 0.79,-1.3 0.67,-2.75 -0.31,-3.76 -1.1,-1.14 -1.76,-1.14 -3.6,-1.14 -0.86,0 -1.59,-1.43 -3.34,-1.13z"/>
   <path class="fil1" d="M3.65 84.35c0.44,-0.76 2.21,-2.55 3.15,-2.98 2.01,-0.92 3.24,0.26 4.17,1.14 1,0.94 2.55,1.8 4.55,1.54 2.05,-0.27 2.75,-1.29 3.75,-2.17 1.28,-1.13 3.29,-1.05 4.36,0.1 0.81,0.87 1.97,1.91 3.84,2.09 4.57,0.44 4.94,-4.4 8.55,-2.68 1.47,0.7 1.58,1.83 3.59,2.46 1.73,0.54 3.57,0.08 4.77,-0.78 1.09,-0.77 1.6,-2.25 3.88,-1.97 2.45,0.3 3.8,4.72 8.41,2.96 1.36,-0.51 2.46,-1.66 3.46,-2.44 2.83,-2.2 4.54,0.08 6.55,2.03l0.64 0.87c-1.05,0.86 -4.55,2.12 -6.09,2.79 -2.18,0.94 -4.01,1.83 -4.55,4.15 -1.71,0 -3.41,0 -5.12,0 -1.39,0 -3.92,-0.47 -4.08,0.95 -0.2,1.73 2.45,1.26 3.75,1.26 1.71,0 3.41,0 5.11,0 0.4,5.12 5.61,5 3.5,7.32 -0.69,0.77 -4.15,0.44 -5.49,0.44l-40.47 0.01c-0.98,0.01 -1.82,-0.04 -2.15,-0.86 -0.8,-2.01 2.24,-1.69 3.37,-5.02 0.56,-1.65 0.3,-3.57 -0.47,-4.92 -1.93,-3.35 -9.43,-4.19 -10.98,-6.29zm-1.24 -2.02c-0.81,-1.39 -0.07,-5.33 3.22,-6.22 1.84,-0.49 7.64,-0.09 9.89,-0.09 5.26,-0.01 48.51,-0.42 50.33,0.11 3.23,0.93 3.9,4.86 2.91,6.47 -0.64,-0.5 -1.02,-1.04 -1.6,-1.56 -0.34,-0.3 -0.58,-0.45 -0.88,-0.76 -1.5,-1.6 -3.71,-2.22 -5.8,-1.42 -2.49,0.94 -4.89,5.23 -7.98,2.42 -1.06,-0.97 -1.72,-2.03 -3.86,-2.36 -1.84,-0.29 -3.61,0.53 -4.57,1.38 -0.55,0.49 -0.8,1.07 -1.73,1.39 -3,1.01 -3.54,-1.84 -6.15,-2.61 -5.12,-1.52 -5.54,3.82 -9.19,2.65 -0.8,-0.26 -1.41,-0.83 -1.83,-1.3 -1.71,-1.94 -4.84,-1.96 -6.83,-0.63 -1.17,0.79 -1.85,2.39 -4.07,2.04 -1.68,-0.27 -2.22,-1.76 -3.75,-2.47 -1.51,-0.7 -3.55,-0.64 -4.93,0.14 -1.47,0.83 -2.09,1.86 -3.18,2.82zm11.8 -8.63c-0.59,-0.34 -0.69,-1.84 -0.87,-2.57 -0.23,-0.95 -0.45,-1.82 -0.69,-2.75 -0.34,-1.38 -0.64,-1.45 -0.02,-2.63 1.5,-2.85 2.74,-0.25 4.13,0.33 2.63,1.1 4.05,-0.93 4.81,-1.56 2.37,-1.97 3.28,3.18 7.35,1.29 1.56,-0.73 2.38,-2.94 4.46,-1.44 0.67,0.48 1.07,1.12 1.74,1.69 0.99,0.84 0.92,0.7 0.53,2.22 -0.44,1.71 -0.96,3.61 -1.33,5.42l-20.11 0zm-2.73 -10.4c-0.23,-0.43 -1.58,-5.71 -1.6,-6.39l28.49 0c0.09,1.11 -1.45,5.76 -1.69,7.34 -0.43,-0.24 -0.67,-0.64 -1.33,-1.19 -1.43,-1.19 -2.92,-2.11 -5.19,-1.09 -1.13,0.52 -1.65,1.86 -2.85,1.89 -1.39,0.04 -1.43,-1.08 -2.85,-1.71 -3.83,-1.7 -4.82,2.23 -6.6,1.86 -0.97,-0.2 -1.18,-1.44 -3.02,-1.75 -1.31,-0.22 -2.9,0.38 -3.36,1.04zm1.56 -8.68c0.4,-1.33 3.32,-4.76 4.26,-5.5 1.63,-1.29 3.86,-2.83 6.9,-2.71 4.62,0.19 9.94,5.04 11.14,8.21l-22.3 0zm49.09 -5.26c-2.32,1.52 -7.39,8.45 -9.81,8.86 -1.91,0.33 -3.64,-0.67 -4.5,-1.58 -1.14,-1.19 -1.53,-2.84 -0.42,-4.46l1.62 -1.49c2.84,-1.82 10.94,-2.63 13.11,-1.33zm0.94 -21.75c-0.31,1.22 -1.65,3.33 -2.3,4.19 -2.81,3.69 -7.01,6.38 -12.02,7.16 -1.47,0.23 -1.42,0.07 -2.16,-0.75 -3.15,-3.48 -5,-6.44 -2.81,-11.28 0.32,-0.71 1.68,-3.52 2.37,-3.89 0.41,0.22 2.07,2.24 3.17,3.1 1.13,0.88 2.13,1.81 3.77,2.46 4.62,1.83 7.27,-0.22 9.98,-0.99zm-19.35 11.39c-7.14,-0.76 -12.21,-5.71 -14.52,-10.77 -0.73,-1.6 -0.75,-1.32 1.13,-4.1 4.38,-6.46 8.59,-4.17 13.41,-3.2 0.21,1.39 0.31,0.83 -0.46,2.06 -6.47,10.31 0.35,13.79 0.44,16.01zm4.73 -17.11c8,-1.72 11.11,-3.98 11.98,-12.57 2.56,2.46 4.13,7.91 4.01,12.11 -0.09,2.95 -0.23,2.89 -1.56,3.63 -2.2,1.23 -5.47,2.62 -8.48,1.57 -1.93,-0.68 -5.38,-3.51 -5.95,-4.74zm-20.85 -1.43c0,-6.69 3.7,-11.62 7.17,-14.34 0.73,-0.57 0.93,-0.34 1.99,-0.02 5.7,1.71 8.33,3.92 8.33,10.27 0,3.32 0.22,2.53 -2.83,1.76 -4.87,-1.24 -9.56,-0.89 -12.74,3.22 -0.5,0.65 -1.19,1.73 -1.73,2.25l-0.19 -3.14zm10.7 -16.38c1.87,-1.52 7.49,-1.99 10.28,-1.6 3.68,0.52 6.23,1.86 8.66,3.62 1.01,0.72 0.96,0.6 0.9,2.24 -0.25,6.89 -2.41,9.97 -10.02,11.25 -0.88,-0.67 -0.76,-1.09 -0.72,-2.4 0.15,-5.84 -1.49,-9.89 -6.9,-12.2 -0.72,-0.31 -1.58,-0.51 -2.2,-0.91zm-13.07 40.1c-2.11,-0.15 -2.75,0 -4.67,0.42 -3.35,1.41 -4.94,2.69 -6.72,4.82 -0.92,1.11 -1.68,2.07 -2.51,3.38 -0.19,0.31 -0.84,1.58 -1.18,1.74 -0.9,0.42 -1.07,-0.14 -2,0.82 -1.2,1.25 -0.36,2.96 0.04,4.55 0.38,1.55 0.76,3.06 1.14,4.59 0.74,3.05 1.64,6.14 2.26,9.19 -1.74,0.04 -4.02,-0.13 -5.67,0.09 -5.49,0.76 -7.01,6.84 -5.19,10.45 2.8,5.55 13.88,4.24 12.38,10.33 -0.48,1.94 -1.77,2 -2.73,3.01 -0.99,1.04 -1.29,2.83 -0.45,4.34 0.72,1.29 2.03,1.76 3.95,1.76 4.55,-0.01 44.36,0.2 45.75,-0.12 1.37,-0.31 2.49,-1.55 2.72,-3 0.32,-1.99 -0.69,-3.14 -1.81,-3.87 -3,-1.97 -2.66,-5.52 0.65,-6.95 1.7,-0.74 6.76,-2.63 7.81,-3.67 4.3,-4.27 2.04,-9.73 -1.01,-11.42 -3.54,-1.96 -16,-0.39 -21.96,-0.98l0.02 -15.47c1.62,1.2 3.07,2.57 6,2.4 1.26,-0.08 2.26,-0.53 3.13,-1.12 0.73,-0.48 10.3,-10.23 10.45,-10.48 -1.46,-1.14 -1.57,-1.81 -4.28,-2.28 -1.92,-0.34 -4.12,-0.33 -6.07,-0.12 -1.88,0.19 -3.62,0.53 -5.31,1.11 -2.09,0.72 -2.6,1.44 -3.94,2.41l0.03 -8.61c3.56,-0.45 5.39,-0.41 8.46,-1.86 4.53,-2.12 8.34,-5.65 10.31,-10.17 6.27,-14.43 -3.79,-28.62 -17.54,-29.43 -11.8,-0.69 -20.94,8.17 -21.91,18.79 -1.09,11.81 7.87,21.46 18.34,22.49l0 32.39 -7.03 -0.05c0.76,-3.27 1.61,-6.5 2.43,-9.78 0.41,-1.65 0.8,-3.32 1.23,-4.98 0.46,-1.77 0.66,-3.65 -1.14,-4.15 -1.63,-0.46 -0.87,0.25 -1.77,-1.33 -0.42,-0.73 -0.78,-1.26 -1.24,-1.88 -2.51,-3.43 -6.29,-6.62 -10.97,-7.36z"/>
  </g>
 </g>
</svg>
