<?xml version="1.0" encoding="UTF-8"?>
<!DOCTYPE svg PUBLIC "-//W3C//DTD SVG 1.1//EN" "http://www.w3.org/Graphics/SVG/1.1/DTD/svg11.dtd">
<!-- Creator: CorelDRAW 2018 -->
<svg xmlns="http://www.w3.org/2000/svg" xml:space="preserve" width="28px" height="20px" version="1.1" style="shape-rendering:geometricPrecision; text-rendering:geometricPrecision; image-rendering:optimizeQuality; fill-rule:evenodd; clip-rule:evenodd"
viewBox="0 0 28 20"
 xmlns:xlink="http://www.w3.org/1999/xlink">
 <defs>
  <style type="text/css">

  </style>
 </defs>
 <g id="Слой_x0020_1">
  <metadata id="CorelCorpID_0Corel-Layer"/>
  <path class="fil0" d="M25.667 11.25l-23.334 0 0.001 -6.375 0 -1.124c0.001,-0.691 0.523,-1.252 1.167,-1.251 7,-0.001 13.999,-0.001 20.998,0 0.644,-0.001 1.167,0.56 1.168,1.251l0 1.123 0 6.376zm-1.167 -11.25c-7,0 -14,0 -21,0 -1.925,-0.001 -3.489,1.667 -3.5,3.728 0,0.008 0,0.015 0,0.022l0 12.5c0,2.072 1.568,3.75 3.502,3.75l20.997 0c1.933,0 3.502,-1.677 3.501,-3.75l0 -12.5c0,-0.007 0,-0.014 0,-0.022 -0.011,-2.061 -1.574,-3.729 -3.5,-3.728zm-22.168 15l23.333 0.001 0.002 1.249c-0.002,0.69 -0.525,1.251 -1.168,1.251l-20.999 -0.002c-0.644,0.001 -1.168,-0.559 -1.167,-1.251l-0.001 -1.248z"/>
 </g>
</svg>
