<?xml version="1.0" encoding="UTF-8"?>
<!DOCTYPE svg PUBLIC "-//W3C//DTD SVG 1.1//EN" "http://www.w3.org/Graphics/SVG/1.1/DTD/svg11.dtd">
<!-- Creator: CorelDRAW 2018 -->
<svg xmlns="http://www.w3.org/2000/svg" xml:space="preserve" width="28px" height="20px" version="1.1" style="shape-rendering:geometricPrecision; text-rendering:geometricPrecision; image-rendering:optimizeQuality; fill-rule:evenodd; clip-rule:evenodd"
viewBox="0 0 28 20"
 xmlns:xlink="http://www.w3.org/1999/xlink">
 <defs>
  <style type="text/css">
   <![CDATA[
    .fil0 {fill:#666666}
   ]]>
  </style>
 </defs>
 <g id="Слой_x0020_1">
  <metadata id="CorelCorpID_0Corel-Layer"/>
  <path class="fil0" d="M1.394 0.001c-0.772,0 -1.395,0.634 -1.394,1.419l0 1.173 0 2.592 0 1.52 0 8.111 0.001 2.591 0 1.173c-0.001,0.784 0.625,1.42 1.393,1.42l1.153 0 2.546 -0.002 17.814 0.002 2.547 0 1.153 0c0.769,-0.001 1.393,-0.635 1.393,-1.417l0 -1.174 0 -2.593 0 -8.111 0 -1.52 0 -2.592 0 -1.173c0.001,-0.785 -0.622,-1.419 -1.394,-1.419l-1.152 0 -2.546 -0.001c-5.939,0 -11.877,0 -17.816,0l-2.546 0.001 -1.152 0zm1.152 14.815l-0.324 0 0 -6.628 0 -3.006 0.325 0.001c1.399,0.001 2.548,-1.167 2.546,-2.592l0 -0.33c5.938,0.001 11.876,0.001 17.814,0l0 0.33c-0.002,1.425 1.147,2.593 2.546,2.592l0.325 -0.001 0 3.006 0.001 6.628 -0.326 0.001c-1.4,-0.001 -2.548,1.165 -2.546,2.591l0 0.33 -17.814 0.001 -0.001 -0.331c0,-1.425 -1.146,-2.592 -2.546,-2.592zm11.237 -9.446l-2.476 1.831 1.016 1.644 0.913 -0.651 -0.001 6.461 1.955 -0.001 -0.001 -9.284 -1.406 0z"/>
 </g>
</svg>
